<?xml version="1.0" encoding="UTF-8"?><svg xmlns="http://www.w3.org/2000/svg" width="510.3" height="146.67" xmlns:xlink="http://www.w3.org/1999/xlink" viewBox="0 0 510.3 146.67"><defs><style>.db{fill:url(#e);}.dc{fill:url(#u);}.dd{fill:url(#as);}.de{fill:url(#ce);}.df{opacity:.9;}.df,.dg,.dh,.di,.dj,.dk,.dl,.dm,.dn,.do,.dp,.dq,.dr,.ds,.dt,.du,.dv,.dw,.dx,.dy{stroke:#000;}.df,.dh,.dl,.dm,.dp{stroke-width:.59px;}.df,.dh,.dl,.dm,.dp,.dr{stroke-linejoin:round;}.df,.dm{fill:#ffa9a9;}.dz{fill:#73c928;}.ea{fill:#ff931e;}.eb{fill:#eef7fe;}.dg{opacity:.6;stroke-width:3.85px;}.dg,.ec,.ed,.ee,.ef,.eg,.eh,.ei,.ej,.ek,.el,.em,.en,.eo,.di,.ep,.eq,.er,.dj,.es,.et,.eu,.ev,.ew,.dk,.ex,.dn,.do,.dq,.ey,.ds,.dt,.ez,.fa,.fb,.du,.dv,.fc,.dw,.dx,.dy{stroke-miterlimit:10;}.dg,.fd{fill:#3fa9f5;}.fe{fill:#e6e6e6;}.ff{fill:#f9ba7a;}.ec{filter:url(#ad);}.ec,.ed,.ee,.ef,.eg,.eh,.ei,.ej,.ek,.el,.em,.en,.eo,.di,.ep,.eq,.er,.dj,.es,.et,.eu,.ev,.ew,.dl,.ex,.dn,.do,.dq,.dr,.ey,.ds,.ez,.fa,.fb,.du,.dv,.fc,.dx,.dy{fill:none;}.ec,.ed,.eh,.ei,.ej,.em,.en,.eo,.fc{stroke:#3fa9f5;}.ec,.ed,.ek,.el,.es,.et{stroke-width:.92px;}.ed{filter:url(#al);}.ee{filter:url(#az);}.ee,.ef,.eg,.eh,.ei,.ej,.ep,.eq,.er,.dj,.ex,.do,.ey,.fc{stroke-width:1.12px;}.ee,.ef,.eg,.ek,.el,.ex,.ez,.fa,.fb{stroke:#7ac943;}.ef{filter:url(#av);}.eg{filter:url(#bf);}.eh{filter:url(#at);}.ei{filter:url(#ax);}.ej{filter:url(#bd);}.ek{filter:url(#an);}.el{filter:url(#af);}.fg{fill:#5ebbea;}.fh{fill:#78c2ef;}.em{filter:url(#bv);}.em,.ew,.ez{stroke-width:.56px;}.en{filter:url(#bj);}.en,.eo,.eu,.ev,.fa,.fb{stroke-width:.84px;}.eo{filter:url(#bp);}.dh{fill:#ffd4d4;}.di,.fi{opacity:.15;}.di,.dq,.dr,.du,.dv{stroke-linecap:square;}.di,.dq,.dv{stroke-width:3px;}.ep{filter:url(#bb);}.ep,.eq,.er,.es,.et,.eu,.ev,.ew,.ey{stroke:#ff931e;}.eq{filter:url(#cb);}.er{filter:url(#bh);}.dj{stroke-dasharray:1.12 1.12;}.es{filter:url(#ah);}.et{filter:url(#ap);}.eu{filter:url(#bt);}.ev{filter:url(#bn);}.ew{filter:url(#bz);}.fj{opacity:.8;}.fj,.dk{fill:#f2f2f2;}.fk{fill:#70bfef;}.fl{fill:#5ace00;}.fm{filter:url(#cf);}.fn{filter:url(#cj);}.fo{filter:url(#cp);}.fp{filter:url(#cn);}.fq{filter:url(#ch);}.fr{filter:url(#cr);}.fs{filter:url(#cl);}.ft{filter:url(#p);}.fu{filter:url(#n);}.fv{filter:url(#l);}.fw{filter:url(#j);}.fx{filter:url(#h);}.fy{filter:url(#r);}.fz{filter:url(#f);}.ga{fill:#83c5e5;}.dk{filter:url(#ab);}.dk,.dw{stroke-width:.46px;}.gb{fill:#8ece5d;}.gc{fill:#ed822b;}.ex{filter:url(#x);}.gd{fill:#fff;}.ge{fill:#aedd8a;}.gf{fill:#ffb66e;}.gg{fill:#7ac943;}.gh{fill:#c8e8aa;}.dn{stroke-width:.5px;}.gi{fill:#0094ef;}.gj{fill:#74bfed;}.gk{fill:#f7c194;}.gl,.dv{opacity:.85;}.gm{opacity:.5;}.dp{fill:#ffc5c5;}.gn{fill:#ffd4ae;}.dr{stroke-width:.48px;}.go{fill:#ffdabb;}.ey{filter:url(#z);}.gp{fill:#ff7f00;}.ds{stroke-width:3.37px;}.gq{fill:#b5d898;}.gr{fill:#6dc0f2;}.dt{fill:#bdccd4;stroke-width:.17px;}.ez{filter:url(#bx);}.fa{filter:url(#br);}.fb{filter:url(#bl);}.du{stroke-width:1.12px;}.gs{fill:#f9a858;}.gt{fill:#afd2e8;}.gu{fill:#333;}.fc{filter:url(#v);}.dw{fill:#d6e3e8;filter:url(#aj);}.dx{stroke-width:3.23px;}.gv{fill:#e8e8e8;}.dy{stroke-width:3.25px;}</style><linearGradient id="e" x1="12.53" y1="88.07" x2="107.62" y2="70" gradientUnits="userSpaceOnUse"><stop offset="0" stop-color="#000" stop-opacity=".1"/><stop offset=".85" stop-color="#919191" stop-opacity=".04"/><stop offset="1" stop-color="#fff" stop-opacity="0"/></linearGradient><filter id="f" x="8.81" y="88.29" width="7.68" height="17.76" filterUnits="userSpaceOnUse"><feOffset dx=".45" dy=".45"/><feGaussianBlur result="g" stdDeviation=".22"/><feFlood flood-color="#000" flood-opacity=".5"/><feComposite in2="g" operator="in"/><feComposite in="SourceGraphic"/></filter><filter id="h" x="89.57" y="99.89" width="7.68" height="17.76" filterUnits="userSpaceOnUse"><feOffset dx=".45" dy=".45"/><feGaussianBlur result="i" stdDeviation=".22"/><feFlood flood-color="#000" flood-opacity=".5"/><feComposite in2="i" operator="in"/><feComposite in="SourceGraphic"/></filter><filter id="j" x="60.17" y="27.81" width="7.68" height="17.76" filterUnits="userSpaceOnUse"><feOffset dx=".45" dy=".45"/><feGaussianBlur result="k" stdDeviation=".22"/><feFlood flood-color="#000" flood-opacity=".5"/><feComposite in2="k" operator="in"/><feComposite in="SourceGraphic"/></filter><filter id="l" x="106.37" y="53.09" width="7.68" height="17.76" filterUnits="userSpaceOnUse"><feOffset dx=".45" dy=".45"/><feGaussianBlur result="m" stdDeviation=".22"/><feFlood flood-color="#000" flood-opacity=".5"/><feComposite in2="m" operator="in"/><feComposite in="SourceGraphic"/></filter><filter id="n" x="95.57" y="28.61" width="7.68" height="17.76" filterUnits="userSpaceOnUse"><feOffset dx=".45" dy=".45"/><feGaussianBlur result="o" stdDeviation=".22"/><feFlood flood-color="#000" flood-opacity=".5"/><feComposite in2="o" operator="in"/><feComposite in="SourceGraphic"/></filter><filter id="p" x="9.41" y="39.89" width="7.68" height="17.76" filterUnits="userSpaceOnUse"><feOffset dx=".45" dy=".45"/><feGaussianBlur result="q" stdDeviation=".22"/><feFlood flood-color="#000" flood-opacity=".5"/><feComposite in2="q" operator="in"/><feComposite in="SourceGraphic"/></filter><filter id="r" x="37.25" y="21.17" width="7.68" height="17.76" filterUnits="userSpaceOnUse"><feOffset dx=".45" dy=".45"/><feGaussianBlur result="s" stdDeviation=".22"/><feFlood flood-color="#000" flood-opacity=".5"/><feComposite in2="s" operator="in"/><feComposite in="SourceGraphic"/></filter><linearGradient id="u" x1="129.09" y1="88.07" x2="224.18" y2="70" xlink:href="#e"/><filter id="v" x="162.71" y="72.87" width="15.12" height="27.12" filterUnits="userSpaceOnUse"><feOffset dx=".22" dy=".22"/><feGaussianBlur result="w" stdDeviation=".56"/><feFlood flood-color="#000" flood-opacity=".25"/><feComposite in2="w" operator="in"/><feComposite in="SourceGraphic"/></filter><filter id="x" x="153.59" y="61.59" width="24.24" height="19.2" filterUnits="userSpaceOnUse"><feOffset dx=".22" dy=".22"/><feGaussianBlur result="y" stdDeviation=".56"/><feFlood flood-color="#000" flood-opacity=".25"/><feComposite in2="y" operator="in"/><feComposite in="SourceGraphic"/></filter><filter id="z" x="169.91" y="59.91" width="26.64" height="20.88" filterUnits="userSpaceOnUse"><feOffset dx=".22" dy=".22"/><feGaussianBlur result="aa" stdDeviation=".56"/><feFlood flood-color="#000" flood-opacity=".25"/><feComposite in2="aa" operator="in"/><feComposite in="SourceGraphic"/></filter><filter id="ab" x="233.37" y="40.62" width="31.28" height="31.11" filterUnits="userSpaceOnUse"><feOffset dx=".92" dy=".92"/><feGaussianBlur result="ac" stdDeviation=".18"/><feFlood flood-color="#000" flood-opacity=".25"/><feComposite in2="ac" operator="in"/><feComposite in="SourceGraphic"/></filter><filter id="ad" x="241.5" y="52.42" width="10.08" height="17.04" filterUnits="userSpaceOnUse"><feOffset dx=".18" dy=".18"/><feGaussianBlur result="ae" stdDeviation=".46"/><feFlood flood-color="#000" flood-opacity=".25"/><feComposite in2="ae" operator="in"/><feComposite in="SourceGraphic"/></filter><filter id="af" x="235.98" y="46.42" width="15.6" height="12.48" filterUnits="userSpaceOnUse"><feOffset dx=".18" dy=".18"/><feGaussianBlur result="ag" stdDeviation=".46"/><feFlood flood-color="#000" flood-opacity=".25"/><feComposite in2="ag" operator="in"/><feComposite in="SourceGraphic"/></filter><filter id="ah" x="245.1" y="45.46" width="16.8" height="13.44" filterUnits="userSpaceOnUse"><feOffset dx=".18" dy=".18"/><feGaussianBlur result="ai" stdDeviation=".46"/><feFlood flood-color="#000" flood-opacity=".25"/><feComposite in2="ai" operator="in"/><feComposite in="SourceGraphic"/></filter><filter id="aj" x="233.37" y="78.2" width="31.28" height="31.09" filterUnits="userSpaceOnUse"><feOffset dx=".92" dy=".92"/><feGaussianBlur result="ak" stdDeviation=".18"/><feFlood flood-color="#000" flood-opacity=".25"/><feComposite in2="ak" operator="in"/><feComposite in="SourceGraphic"/></filter><filter id="al" x="245.1" y="77.74" width="9.6" height="18.72" filterUnits="userSpaceOnUse"><feOffset dx=".18" dy=".18"/><feGaussianBlur result="am" stdDeviation=".46"/><feFlood flood-color="#000" flood-opacity=".25"/><feComposite in2="am" operator="in"/><feComposite in="SourceGraphic"/></filter><filter id="an" x="245.1" y="89.98" width="13.2" height="17.04" filterUnits="userSpaceOnUse"><feOffset dx=".18" dy=".18"/><feGaussianBlur result="ao" stdDeviation=".46"/><feFlood flood-color="#000" flood-opacity=".25"/><feComposite in2="ao" operator="in"/><feComposite in="SourceGraphic"/></filter><filter id="ap" x="236.94" y="89.98" width="14.64" height="9.84" filterUnits="userSpaceOnUse"><feOffset dx=".18" dy=".18"/><feGaussianBlur result="aq" stdDeviation=".46"/><feFlood flood-color="#000" flood-opacity=".25"/><feComposite in2="aq" operator="in"/><feComposite in="SourceGraphic"/></filter><linearGradient id="as" x1="273.51" y1="86.07" x2="368.6" y2="68" xlink:href="#e"/><filter id="at" x="315.24" y="54.92" width="10.32" height="23.04" filterUnits="userSpaceOnUse"><feOffset dx=".22" dy=".22"/><feGaussianBlur result="au" stdDeviation=".28"/><feFlood flood-color="#000" flood-opacity=".25"/><feComposite in2="au" operator="in"/><feComposite in="SourceGraphic"/></filter><filter id="av" x="314.39" y="70.87" width="16.08" height="21.12" filterUnits="userSpaceOnUse"><feOffset dx=".22" dy=".22"/><feGaussianBlur result="aw" stdDeviation=".56"/><feFlood flood-color="#000" flood-opacity=".25"/><feComposite in2="aw" operator="in"/><feComposite in="SourceGraphic"/></filter><filter id="ax" x="343.08" y="66.92" width="14.64" height="12.24" filterUnits="userSpaceOnUse"><feOffset dx=".22" dy=".22"/><feGaussianBlur result="ay" stdDeviation=".28"/><feFlood flood-color="#000" flood-opacity=".25"/><feComposite in2="ay" operator="in"/><feComposite in="SourceGraphic"/></filter><filter id="az" x="343.08" y="66.92" width="8.88" height="22.08" filterUnits="userSpaceOnUse"><feOffset dx=".22" dy=".22"/><feGaussianBlur result="ba" stdDeviation=".28"/><feFlood flood-color="#000" flood-opacity=".25"/><feComposite in2="ba" operator="in"/><feComposite in="SourceGraphic"/></filter><filter id="bb" x="343.08" y="66.92" width="19.92" height="6" filterUnits="userSpaceOnUse"><feOffset dx=".22" dy=".22"/><feGaussianBlur result="bc" stdDeviation=".28"/><feFlood flood-color="#000" flood-opacity=".25"/><feComposite in2="bc" operator="in"/><feComposite in="SourceGraphic"/></filter><filter id="bd" x="282.6" y="56.12" width="16.08" height="8.64" filterUnits="userSpaceOnUse"><feOffset dx=".22" dy=".22"/><feGaussianBlur result="be" stdDeviation=".28"/><feFlood flood-color="#000" flood-opacity=".25"/><feComposite in2="be" operator="in"/><feComposite in="SourceGraphic"/></filter><filter id="bf" x="292.44" y="51.8" width="18.24" height="12.96" filterUnits="userSpaceOnUse"><feOffset dx=".22" dy=".22"/><feGaussianBlur result="bg" stdDeviation=".28"/><feFlood flood-color="#000" flood-opacity=".25"/><feComposite in2="bg" operator="in"/><feComposite in="SourceGraphic"/></filter><filter id="bh" x="283.56" y="58.52" width="15.12" height="17.04" filterUnits="userSpaceOnUse"><feOffset dx=".22" dy=".22"/><feGaussianBlur result="bi" stdDeviation=".28"/><feFlood flood-color="#000" flood-opacity=".25"/><feComposite in2="bi" operator="in"/><feComposite in="SourceGraphic"/></filter><filter id="bj" x="301.8" y="43.16" width="16.8" height="6.24" filterUnits="userSpaceOnUse"><feOffset dx=".22" dy=".22"/><feGaussianBlur result="bk" stdDeviation=".28"/><feFlood flood-color="#000" flood-opacity=".25"/><feComposite in2="bk" operator="in"/><feComposite in="SourceGraphic"/></filter><filter id="bl" x="301.8" y="40.04" width="6.72" height="9.36" filterUnits="userSpaceOnUse"><feOffset dx=".22" dy=".22"/><feGaussianBlur result="bm" stdDeviation=".28"/><feFlood flood-color="#000" flood-opacity=".25"/><feComposite in2="bm" operator="in"/><feComposite in="SourceGraphic"/></filter><filter id="bn" x="295.32" y="44.36" width="11.76" height="6.24" filterUnits="userSpaceOnUse"><feOffset dx=".22" dy=".22"/><feGaussianBlur result="bo" stdDeviation=".28"/><feFlood flood-color="#000" flood-opacity=".25"/><feComposite in2="bo" operator="in"/><feComposite in="SourceGraphic"/></filter><filter id="bp" x="337.08" y="48.68" width="13.2" height="7.44" filterUnits="userSpaceOnUse"><feOffset dx=".22" dy=".22"/><feGaussianBlur result="bq" stdDeviation=".28"/><feFlood flood-color="#000" flood-opacity=".25"/><feComposite in2="bq" operator="in"/><feComposite in="SourceGraphic"/></filter><filter id="br" x="345.24" y="51.08" width="12.48" height="9.12" filterUnits="userSpaceOnUse"><feOffset dx=".22" dy=".22"/><feGaussianBlur result="bs" stdDeviation=".28"/><feFlood flood-color="#000" flood-opacity=".25"/><feComposite in2="bs" operator="in"/><feComposite in="SourceGraphic"/></filter><filter id="bt" x="345.24" y="46.76" width="8.4" height="9.36" filterUnits="userSpaceOnUse"><feOffset dx=".22" dy=".22"/><feGaussianBlur result="bu" stdDeviation=".28"/><feFlood flood-color="#000" flood-opacity=".25"/><feComposite in2="bu" operator="in"/><feComposite in="SourceGraphic"/></filter><filter id="bv" x="323.4" y="41.96" width="6.96" height="4.56" filterUnits="userSpaceOnUse"><feOffset dx=".22" dy=".22"/><feGaussianBlur result="bw" stdDeviation=".28"/><feFlood flood-color="#000" flood-opacity=".25"/><feComposite in2="bw" operator="in"/><feComposite in="SourceGraphic"/></filter><filter id="bx" x="319.08" y="40.76" width="11.28" height="5.28" filterUnits="userSpaceOnUse"><feOffset dx=".22" dy=".22"/><feGaussianBlur result="by" stdDeviation=".28"/><feFlood flood-color="#000" flood-opacity=".25"/><feComposite in2="by" operator="in"/><feComposite in="SourceGraphic"/></filter><filter id="bz" x="326.28" y="41.96" width="9.36" height="4.08" filterUnits="userSpaceOnUse"><feOffset dx=".22" dy=".22"/><feGaussianBlur result="ca" stdDeviation=".28"/><feFlood flood-color="#000" flood-opacity=".25"/><feComposite in2="ca" operator="in"/><feComposite in="SourceGraphic"/></filter><filter id="cb" x="303.96" y="71.72" width="17.52" height="11.04" filterUnits="userSpaceOnUse"><feOffset dx=".22" dy=".22"/><feGaussianBlur result="cc" stdDeviation=".28"/><feFlood flood-color="#000" flood-opacity=".25"/><feComposite in2="cc" operator="in"/><feComposite in="SourceGraphic"/></filter><linearGradient id="ce" x1="382.07" y1="86.07" x2="477.16" y2="68" xlink:href="#e"/><filter id="cf" x="429.65" y="25.57" width="7.68" height="17.76" filterUnits="userSpaceOnUse"><feOffset dx=".45" dy=".45"/><feGaussianBlur result="cg" stdDeviation=".22"/><feFlood flood-color="#000" flood-opacity=".5"/><feComposite in2="cg" operator="in"/><feComposite in="SourceGraphic"/></filter><filter id="ch" x="377.25" y="84.81" width="7.44" height="17.76" filterUnits="userSpaceOnUse"><feOffset dx=".45" dy=".45"/><feGaussianBlur result="ci" stdDeviation=".22"/><feFlood flood-color="#000" flood-opacity=".5"/><feComposite in2="ci" operator="in"/><feComposite in="SourceGraphic"/></filter><filter id="cj" x="460.37" y="97.09" width="7.44" height="17.76" filterUnits="userSpaceOnUse"><feOffset dx=".45" dy=".45"/><feGaussianBlur result="ck" stdDeviation=".22"/><feFlood flood-color="#000" flood-opacity=".5"/><feComposite in2="ck" operator="in"/><feComposite in="SourceGraphic"/></filter><filter id="cl" x="475.97" y="60.13" width="7.68" height="17.76" filterUnits="userSpaceOnUse"><feOffset dx=".45" dy=".45"/><feGaussianBlur result="cm" stdDeviation=".22"/><feFlood flood-color="#000" flood-opacity=".5"/><feComposite in2="cm" operator="in"/><feComposite in="SourceGraphic"/></filter><filter id="cn" x="465.41" y="26.77" width="7.68" height="17.76" filterUnits="userSpaceOnUse"><feOffset dx=".45" dy=".45"/><feGaussianBlur result="co" stdDeviation=".22"/><feFlood flood-color="#000" flood-opacity=".5"/><feComposite in2="co" operator="in"/><feComposite in="SourceGraphic"/></filter><filter id="cp" x="379.25" y="46.93" width="7.44" height="17.76" filterUnits="userSpaceOnUse"><feOffset dx=".45" dy=".45"/><feGaussianBlur result="cq" stdDeviation=".22"/><feFlood flood-color="#000" flood-opacity=".5"/><feComposite in2="cq" operator="in"/><feComposite in="SourceGraphic"/></filter><filter id="cr" x="406.85" y="19.09" width="7.68" height="17.76" filterUnits="userSpaceOnUse"><feOffset dx=".45" dy=".45"/><feGaussianBlur result="cs" stdDeviation=".22"/><feFlood flood-color="#000" flood-opacity=".5"/><feComposite in2="cs" operator="in"/><feComposite in="SourceGraphic"/></filter></defs><g id="a" class="fi"><rect class="gd" x="-.39" y=".26" width="510.69" height="146.41"/><rect class="dg" x="3.29" y="12.33" width="503.9" height="131.75"/></g><g id="c"><g class="gl"><path class="dx" d="M213.86,39.92c18.11-12.54,48.02-10.53,65.44,3.47"/><polygon points="275.76 45.59 283.47 47.24 281.04 39.74 275.76 45.59"/></g><g class="gl"><path d="M228.83,21.09c.11.03.42.03.52.03s.32,0,.43-.03c-.91,1.99-1.79,3.9-2.66,5.9h-.62c-.83-1.97-2.02-4.99-2.47-5.9.15.03.76.03.91.03s.53,0,.68-.03c.08.29.49,1.74,1.54,4.22.62-1.43,1.37-3.17,1.66-4.22Z"/><path d="M233.41,26.24c-.49.57-1.13.77-1.78.77s-1.2-.15-1.51-.47c-.37-.39-.57-.95-.57-1.48,0-.75.3-1.29.73-1.65.36-.29.9-.45,1.39-.45,1.39,0,1.7.9,1.7,2.03l-.05.05s-.77-.02-1.67-.02h-.9c0,.41.1.73.3.95.21.23.54.35.98.35.38,0,.81-.03,1.23-.37.09,0,.14.16.14.28ZM232.19,24.63c0-.79-.22-1.21-.58-1.21-.25,0-.43.11-.54.27-.13.18-.24.5-.27.94h1.4Z"/><path d="M235.74,23.86c-.15.24-.22.59-.22,1.02,0,.52.11.95.27,1.21s.52.49.78.49c.36,0,.8-.13,1.05-.43l.14.05c0,.14.03.27.04.35-.41.34-.8.49-1.49.49s-1.28-.23-1.6-.58c-.3-.33-.49-.77-.49-1.33,0-1.41,1.01-2.13,2.21-2.13.45,0,1.06.15,1.34.3l.02.03-.22.87h-.25c-.2-.49-.46-.75-.81-.75-.32,0-.62.15-.8.43Z"/><path d="M238.96,22.16l.02-.03c.36-.08.85-.32,1.07-.41.05,0,.08.03.08.09-.04.48-.04.75-.04,1.25h.42c.21,0,.46-.01.63-.03l.04.07c-.05.13-.09.29-.11.42-.12-.01-.43-.02-.65-.02h-.34l-.02.96c0,.54,0,1,0,1.27,0,.37.09.72.33.72s.32,0,.52-.11c.1.06.15.2.15.34-.39.23-.86.32-1.32.32-.58,0-.87-.46-.87-.88,0-.27.01-1.02.03-1.56l.03-1.06c-.21,0-.48,0-.64.02l-.04-.06c.09-.14.15-.28.2-.43.11.01.3.03.49.03,0-.36,0-.67.04-.91Z"/><path d="M243.86,22.98c1.52,0,2.16.89,2.16,2.03,0,1.24-.8,2.02-2.18,2.02s-2.18-.74-2.18-1.94c0-1.4.91-2.11,2.2-2.11ZM242.94,24.87c0,.69.09,1.69,1.03,1.69.41,0,.77-.29.77-1.32,0-1.25-.18-1.82-.95-1.82s-.86.67-.86,1.45Z"/><path d="M249.51,22.98c.16,0,.31.02.46.06l.04.04-.18.93-.16.02c-.16-.13-.35-.17-.52-.17-.14,0-.76.1-.76.8v.66c0,.68.02,1.11.09,1.62l-.02.03s-.43-.03-.74-.03-.6.03-.6.03v-.03c.06-.49.08-.95.08-1.62v-.5c0-.67-.03-1.36-.1-1.75l.02-.03c.31.02.9.02,1.16-.03.06,0,.07.03.08.09.01.08.03.45.03.66l.04.03c.23-.35.67-.81,1.09-.81Z"/><path d="M254.8,21.05c.54,1.45,1.06,2.76,1.77,4.19h.04l2.25-4.19h.8c.23,2.21.43,3.95.71,5.91-.14-.03-.52-.03-.66-.03s-.57,0-.7.03c-.13-1.49-.24-2.84-.41-4.26h-.03c-.76,1.38-1.49,2.74-2.14,4.23h-.58c-.48-1.35-1.05-2.78-1.71-4.22h-.03c-.23,1.39-.46,3.3-.5,4.25-.1-.03-.4-.03-.5-.03-.11,0-.31,0-.41.03.39-1.72.86-3.98,1.19-5.91h.92Z"/><path d="M263.01,26.2c1.21,0,2.57-.2,2.57-.2l.02.04c0,.07-.02.42-.02.51s0,.25.02.38l-.02.03c-.14-.02-.35-.03-.54-.03h-2.74c-.31,0-.75.03-.75.03v-.03c.06-.49.08-1.13.08-1.8v-2.21c0-.67-.03-1.29-.1-1.8l.02-.03s.4.03.71.03.75-.03.75-.03v.03c-.06.48-.08,1.13-.08,1.8v2.12c0,.15,0,.95.07,1.16Z"/><path d="M266.74,21.12l.02-.03s.43.03.74.03c.27,0,1.36-.06,1.59-.06.64,0,1.13.08,1.45.31.5.35.63.86.63,1.19,0,.93-.59,1.91-2.23,1.91-.32,0-.61-.03-.81-.09v.76c0,.67.04,1.29.11,1.8l-.02.03s-.41-.03-.72-.03-.75.03-.75.03v-.03c.06-.49.1-1.13.1-1.8v-2.21c0-.67-.04-1.29-.11-1.8ZM268.13,23.91c.12.06.49.09.71.09.52,0,.97-.38.97-1.29,0-1.07-.43-1.22-.96-1.22-.65,0-.72.13-.72.4v2.03Z"/></g><g class="gl"><path class="ds" d="M348.13,37.19c11.08-7.67,29.01-6.91,40.43.88"/><polygon points="384.94 40.6 393.08 41.91 390.14 34.21 384.94 40.6"/></g><g class="gl"><path d="M342.92,20.55l.02-.03s.43.03.74.03c.27,0,1.36-.06,1.59-.06.64,0,1.13.08,1.45.31.5.35.63.86.63,1.19,0,.93-.59,1.91-2.23,1.91-.32,0-.61-.03-.81-.09v.76c0,.67.04,1.29.11,1.8l-.02.03s-.41-.03-.72-.03-.75.03-.75.03v-.03c.06-.49.1-1.13.1-1.8v-2.21c0-.67-.04-1.29-.11-1.8ZM344.3,23.34c.12.06.49.09.71.09.52,0,.97-.38.97-1.29,0-1.07-.43-1.22-.96-1.22-.65,0-.72.13-.72.4v2.03Z"/><path d="M350.14,22.41c1.52,0,2.16.89,2.16,2.03,0,1.24-.8,2.02-2.18,2.02s-2.18-.74-2.18-1.94c0-1.4.91-2.11,2.2-2.11ZM349.22,24.31c0,.69.09,1.69,1.03,1.69.41,0,.77-.29.77-1.32,0-1.25-.18-1.82-.95-1.82s-.86.67-.86,1.45Z"/><path d="M353.38,22.5l.03-.04c.16.01.41.03.64.03.25,0,.5-.03.62-.04.05,0,.08.03.08.09-.06.54-.09.93-.09,1.6v.59c0,.68.02,1.11.09,1.62l-.02.03c-.17-.02-.36-.03-.67-.03s-.48,0-.67.03l-.02-.03c.07-.49.09-.95.09-1.62v-.5c0-.68-.02-1.35-.09-1.74ZM354.07,20.27c.36,0,.64.28.64.62s-.28.62-.64.62-.64-.28-.64-.62.28-.62.64-.62Z"/><path d="M356.23,25.33c.27.52.65.72.96.72.34,0,.62-.02.62-.44,0-.36-.2-.52-.86-.88-.51-.28-.95-.6-.95-1.23,0-.69.71-1.09,1.52-1.09.43,0,.95.1,1.2.23l.02.03-.17.81h-.24c-.12-.24-.38-.67-.82-.67-.35,0-.44.19-.44.44,0,.29.25.45.54.6.64.34,1.28.59,1.28,1.4,0,.62-.5,1.19-1.67,1.19-.32,0-.92-.06-1.4-.24l.14-.86h.27Z"/><path d="M360,25.33c.27.52.65.72.96.72.34,0,.62-.02.62-.44,0-.36-.2-.52-.86-.88-.51-.28-.95-.6-.95-1.23,0-.69.71-1.09,1.52-1.09.43,0,.95.1,1.2.23l.02.03-.17.81h-.24c-.12-.24-.38-.67-.82-.67-.35,0-.44.19-.44.44,0,.29.25.45.54.6.64.34,1.28.59,1.28,1.4,0,.62-.5,1.19-1.67,1.19-.32,0-.92-.06-1.4-.24l.14-.86h.27Z"/><path d="M365.58,22.41c1.52,0,2.16.89,2.16,2.03,0,1.24-.8,2.02-2.18,2.02s-2.18-.74-2.18-1.94c0-1.4.91-2.11,2.2-2.11ZM364.66,24.31c0,.69.09,1.69,1.03,1.69.41,0,.77-.29.77-1.32,0-1.25-.18-1.82-.95-1.82s-.86.67-.86,1.45Z"/><path d="M372.82,26.36l-.02.03s-.4-.03-.7-.03-.6.03-.6.03l-.02-.03c.05-.48.05-.95.05-1.62v-.8c0-.66-.22-.84-.47-.84-.32,0-.7.27-1.04.72v.92c0,.68,0,1.11.05,1.62l-.03.03s-.25-.03-.56-.03-.74.03-.74.03l-.02-.03c.08-.48.1-.95.1-1.62v-.5c0-.67-.03-1.36-.1-1.75l.02-.03c.31.02.9.02,1.16-.03.06,0,.07.03.08.09.01.08.03.45.03.66l.04.03c.41-.53.95-.81,1.41-.81.81,0,1.25.39,1.25,1.33v1c0,.68.02,1.11.1,1.62Z"/><path d="M378.87,25.05c0-.37-.36-.73-.78-.95-.52-.26-1.21-.6-1.63-1.14-.21-.28-.28-.63-.28-.97,0-.95.93-1.56,1.95-1.56,1.1,0,1.84.41,1.84.41l.02.03c-.08.27-.14.76-.18,1.08h-.27c-.23-.43-.77-1.07-1.31-1.07-.49,0-.82.42-.82.87,0,.66.43.88.92,1.11.73.34,1.78.85,1.78,1.83,0,.92-.83,1.76-2.15,1.76-1.1,0-1.94-.4-1.94-.4l-.02-.03c.07-.27.14-.77.18-1.1h.23c.32.47,1.07,1.06,1.62,1.06s.84-.29.84-.93Z"/><path d="M383.2,22.41c1.52,0,2.16.89,2.16,2.03,0,1.24-.8,2.02-2.18,2.02s-2.18-.74-2.18-1.94c0-1.4.91-2.11,2.2-2.11ZM382.28,24.31c0,.69.09,1.69,1.03,1.69.41,0,.77-.29.77-1.32,0-1.25-.18-1.82-.95-1.82s-.86.67-.86,1.45Z"/><path d="M386.5,22.09c0-.68-.04-1.31-.11-1.69l.02-.03c.36-.03,1.06-.21,1.29-.3.06,0,.1.03.1.09-.07.55-.11,1.02-.11,1.69v2.7c0,.68.03,1.29.11,1.8l-.02.03s-.38-.03-.68-.03-.69.03-.69.03v-.03c.07-.48.1-1.13.1-1.8v-2.47Z"/><path d="M388.65,22.47c.14.03.64.03.78.03.13,0,.55,0,.67-.03.27.85.66,1.93,1.02,2.78h.06c.42-.74.89-1.96,1.17-2.78.08.03.3.03.39.03s.43,0,.51-.03c-.68,1.29-1.41,2.7-1.97,3.92-.08-.02-.29-.03-.38-.03s-.4,0-.5.03c-.5-1.31-1.11-2.59-1.75-3.92Z"/><path d="M397.52,25.67c-.49.57-1.13.77-1.78.77s-1.2-.15-1.51-.47c-.37-.39-.57-.95-.57-1.48,0-.75.3-1.29.73-1.65.36-.29.9-.45,1.39-.45,1.39,0,1.7.9,1.7,2.03l-.05.05s-.77-.02-1.67-.02h-.9c0,.41.1.73.3.95.21.23.54.35.98.35.38,0,.81-.03,1.23-.37.09,0,.14.16.14.28ZM396.31,24.06c0-.79-.22-1.21-.58-1.21-.25,0-.43.11-.54.27-.13.18-.24.5-.27.94h1.4Z"/></g><g class="gl"><path class="dy" d="M107.37,36.47c10.24-7.09,26.78-6.43,37.39.71"/><polygon points="141.29 39.63 149.14 40.86 146.28 33.45 141.29 39.63"/></g><g class="gl"><path d="M113.19,24.16l.02-.03s.43.03.74.03.66-.03.66-.03v.03c-.06.48-.08.85-.08,1.53,0,.29.04.42.09.49v.03c-.61.51-1.62.81-2.67.81-.74,0-1.23-.16-1.76-.52-.78-.52-1.28-1.41-1.28-2.33,0-1.02.4-1.88,1.07-2.41.62-.5,1.21-.75,2.11-.75,1.1,0,2.15.41,2.15.41l.02.03c-.11.44-.15.71-.18,1.17h-.27c-.37-.73-1.14-1.1-1.84-1.1-1.22,0-1.6,1.03-1.6,2.48,0,1.19.58,2.54,1.8,2.54.49,0,.83-.05,1.13-.34v-.31c0-.68-.02-1.2-.09-1.71Z"/><path d="M118.32,22.98c.16,0,.31.02.46.06l.04.04-.18.93-.16.02c-.16-.13-.35-.17-.52-.17-.14,0-.76.1-.76.8v.66c0,.68.02,1.11.09,1.62l-.02.03s-.43-.03-.74-.03-.6.03-.6.03v-.03c.06-.49.08-.95.08-1.62v-.5c0-.67-.03-1.36-.1-1.75l.02-.03c.32.02.9.02,1.16-.03.06,0,.07.03.08.09.01.08.02.45.02.66l.04.03c.23-.35.67-.81,1.09-.81Z"/><path d="M123.48,26.53c.05.04.08.11.09.19-.27.21-.72.3-1.07.3-.39,0-.58-.15-.71-.52h-.02c-.4.41-.88.52-1.23.52-.63,0-1.23-.35-1.23-.97s.52-1.07,1.39-1.28l1.05-.28s.05-.04.05-.11c0-.69-.22-.92-.62-.92s-.8.26-1.11.71h-.3s-.18-.68-.18-.68l.03-.04c.22-.19,1.08-.48,1.73-.48.43,0,.97.1,1.26.36.25.22.36.56.36,1.1,0,.1-.04,1.51-.04,1.77,0,.3.19.32.55.32ZM121.07,25.12c-.45.12-.57.52-.57.85,0,.24.2.51.47.51.25,0,.46-.1.67-.31.06-.06.14-.29.14-.4l.02-.84-.72.19Z"/><path d="M125.71,27.02c-1,0-1.67-.81-1.67-1.92,0-.65.22-1.3.77-1.71.41-.3.74-.42,1.34-.42.26,0,.67.16.85.41v-.72c0-.68-.04-1.31-.11-1.69l.02-.03c.37-.03,1.06-.21,1.29-.3.06,0,.1.03.1.09-.07.55-.11,1.03-.11,1.69v2.77c0,.68.1,1.34.17,1.73l-.02.03c-.12-.02-.51-.03-.63-.03-.13,0-.45.01-.57.03-.05,0-.08,0-.08-.03l-.04-.49h-.02c-.24.42-.72.58-1.29.58ZM127,24.2c-.09-.46-.43-.77-.86-.77s-.83.3-.83,1.51c0,1.13.32,1.56.81,1.56.37,0,.65-.19.87-.77v-1.53Z"/><path d="M129.68,23.07l.03-.04c.16.01.41.03.64.03.25,0,.5-.03.62-.04.05,0,.08.03.08.09-.06.54-.09.93-.09,1.6v.59c0,.68.02,1.11.09,1.62l-.02.03c-.17-.02-.36-.03-.67-.03s-.48,0-.67.03l-.02-.03c.07-.49.09-.95.09-1.62v-.5c0-.68-.02-1.35-.09-1.74ZM130.36,20.84c.36,0,.64.28.64.62s-.28.62-.64.62-.64-.28-.64-.62.28-.62.64-.62Z"/><path d="M135.94,26.24c-.49.57-1.13.77-1.78.77s-1.2-.15-1.51-.47c-.37-.39-.57-.95-.57-1.48,0-.75.3-1.29.73-1.65.36-.29.9-.45,1.39-.45,1.39,0,1.7.9,1.7,2.03l-.05.05s-.77-.02-1.67-.02h-.9c0,.41.1.73.3.95.21.23.54.35.98.35.38,0,.81-.03,1.23-.37.09,0,.14.16.14.28ZM134.73,24.63c0-.79-.22-1.21-.58-1.21-.25,0-.43.11-.54.27-.13.18-.24.5-.27.94h1.4Z"/><path d="M141.04,26.93l-.02.03s-.4-.03-.7-.03-.6.03-.6.03l-.02-.03c.05-.48.05-.95.05-1.62v-.8c0-.66-.22-.84-.47-.84-.32,0-.7.27-1.04.72v.92c0,.68,0,1.11.05,1.62l-.03.03s-.25-.03-.56-.03-.74.03-.74.03l-.02-.03c.08-.48.1-.95.1-1.62v-.5c0-.67-.03-1.36-.1-1.75l.02-.03c.31.02.9.02,1.16-.03.06,0,.07.03.08.09.01.08.03.45.03.66l.04.03c.41-.53.95-.81,1.41-.81.81,0,1.25.39,1.25,1.33v1c0,.68.02,1.11.1,1.62Z"/><path d="M142.58,22.16l.02-.03c.36-.08.85-.32,1.07-.41.05,0,.08.03.08.09-.04.48-.04.75-.04,1.25h.42c.21,0,.46-.01.63-.03l.05.07c-.05.13-.09.29-.11.42-.12-.01-.43-.02-.65-.02h-.34l-.02.96c0,.54,0,1,0,1.27,0,.37.09.72.33.72s.32,0,.52-.11c.1.06.15.2.15.34-.39.23-.86.32-1.32.32-.58,0-.87-.46-.87-.88,0-.27.01-1.02.03-1.56l.03-1.06c-.21,0-.48,0-.64.02l-.04-.06c.09-.14.15-.28.2-.43.11.01.3.03.49.03,0-.36,0-.67.04-.91Z"/></g></g><g id="d"><polygon class="db" points="84.74 104.92 13.99 93.47 15.3 68.57 40.26 52.23 108.56 66.09 84.74 104.92"/><polygon class="dm" points="19.75 85.18 63.82 48.3 87.8 96.24 19.75 85.18"/><polygon class="df" points="103.19 70.55 63.82 48.3 87.8 96.24 103.19 70.55"/><polygon class="dp" points="103.19 70.55 63.82 48.3 92.55 47.53 103.19 70.55"/><polygon class="df" points="19.75 85.18 63.82 48.3 19.5 56.95 19.75 85.18"/><polygon class="dp" points="46.23 40.28 63.82 48.3 19.5 56.95 46.23 40.28"/><polygon class="dh" points="46.23 40.28 63.82 48.3 92.55 47.53 46.23 40.28"/><g class="fz"><rect class="gg" x="9.42" y="88.75" width="5.51" height="5.51"/><path d="M14.71,88.97v5.06h-5.06v-5.06h5.06M15.16,88.52h-5.96v5.96h5.96v-5.96h0Z"/><rect class="gn" x="9.42" y="93.81" width="5.51" height="5.51"/><path d="M14.71,94.03v5.06h-5.06v-5.06h5.06M15.16,93.58h-5.96v5.96h5.96v-5.96h0Z"/><rect class="gi" x="9.42" y="98.87" width="5.51" height="5.51"/><path d="M14.71,99.1v5.06h-5.06v-5.06h5.06M15.16,98.65h-5.96v5.96h5.96v-5.96h0Z"/></g><g class="fx"><rect class="gh" x="90.14" y="100.36" width="5.51" height="5.51"/><path d="M95.43,100.58v5.06h-5.06v-5.06h5.06M95.88,100.13h-5.96v5.96h5.96v-5.96h0Z"/><rect class="gf" x="90.14" y="105.42" width="5.51" height="5.51"/><path d="M95.43,105.64v5.06h-5.06v-5.06h5.06M95.88,105.19h-5.96v5.96h5.96v-5.96h0Z"/><rect class="fd" x="90.14" y="110.48" width="5.51" height="5.51"/><path d="M95.43,110.71v5.06h-5.06v-5.06h5.06M95.88,110.26h-5.96v5.96h5.96v-5.96h0Z"/></g><g class="fw"><rect class="gg" x="60.7" y="28.42" width="5.51" height="5.51"/><path d="M65.99,28.64v5.06h-5.06v-5.06h5.06M66.44,28.19h-5.96v5.96h5.96v-5.96h0Z"/><rect class="ea" x="60.7" y="33.48" width="5.51" height="5.51"/><path d="M65.99,33.71v5.06h-5.06v-5.06h5.06M66.44,33.26h-5.96v5.96h5.96v-5.96h0Z"/><rect class="gt" x="60.7" y="38.54" width="5.51" height="5.51"/><path d="M65.99,38.77v5.06h-5.06v-5.06h5.06M66.44,38.32h-5.96v5.96h5.96v-5.96h0Z"/></g><circle class="gu" cx="102.73" cy="70.39" r="2.53"/><circle class="gu" cx="63.46" cy="48.51" r="2.53"/><circle class="gu" cx="19.81" cy="85.3" r="3.01"/><circle class="gu" cx="19.81" cy="57.22" r="2.53"/><circle class="gu" cx="87.79" cy="95.66" r="3.01"/><circle class="gu" cx="92.58" cy="47.56" r="2.25"/><circle class="gu" cx="46.2" cy="40.18" r="2.25"/><g class="fv"><rect class="gg" x="106.99" y="53.7" width="5.51" height="5.51"/><path d="M112.28,53.92v5.06h-5.06v-5.06h5.06M112.73,53.47h-5.96v5.96h5.96v-5.96h0Z"/><rect class="gs" x="106.99" y="58.76" width="5.51" height="5.51"/><path d="M112.28,58.99v5.06h-5.06v-5.06h5.06M112.73,58.54h-5.96v5.96h5.96v-5.96h0Z"/><rect class="fh" x="106.99" y="63.82" width="5.51" height="5.51"/><path d="M112.28,64.05v5.06h-5.06v-5.06h5.06M112.73,63.6h-5.96v5.96h5.96v-5.96h0Z"/></g><g class="fu"><rect class="gb" x="96.24" y="29.22" width="5.51" height="5.51"/><path d="M101.53,29.45v5.06h-5.06v-5.06h5.06M101.98,29h-5.96v5.96h5.96v-5.96h0Z"/><rect class="gc" x="96.24" y="34.28" width="5.51" height="5.51"/><path d="M101.53,34.51v5.06h-5.06v-5.06h5.06M101.98,34.06h-5.96v5.96h5.96v-5.96h0Z"/><rect class="fk" x="96.24" y="39.35" width="5.51" height="5.51"/><path d="M101.53,39.57v5.06h-5.06v-5.06h5.06M101.98,39.12h-5.96v5.96h5.96v-5.96h0Z"/></g><g class="ft"><rect class="gq" x="10.05" y="40.4" width="5.51" height="5.51"/><path d="M15.33,40.62v5.06h-5.06v-5.06h5.06M15.78,40.17h-5.96v5.96h5.96v-5.96h0Z"/><rect class="ff" x="10.05" y="45.46" width="5.51" height="5.51"/><path d="M15.33,45.69v5.06h-5.06v-5.06h5.06M15.78,45.24h-5.96v5.96h5.96v-5.96h0Z"/><rect class="fg" x="10.05" y="50.52" width="5.51" height="5.51"/><path d="M15.33,50.75v5.06h-5.06v-5.06h5.06M15.78,50.3h-5.96v5.96h5.96v-5.96h0Z"/></g><g class="fy"><rect class="dz" x="37.78" y="21.63" width="5.51" height="5.51"/><path d="M43.06,21.85v5.06h-5.06v-5.06h5.06M43.51,21.4h-5.96v5.96h5.96v-5.96h0Z"/><rect class="gk" x="37.78" y="26.69" width="5.51" height="5.51"/><path d="M43.06,26.92v5.06h-5.06v-5.06h5.06M43.51,26.47h-5.96v5.96h5.96v-5.96h0Z"/><rect class="gj" x="37.78" y="31.75" width="5.51" height="5.51"/><path d="M43.06,31.98v5.06h-5.06v-5.06h5.06M43.51,31.53h-5.96v5.96h5.96v-5.96h0Z"/></g></g><g id="t"><polygon class="dc" points="201.3 104.92 130.55 93.47 131.86 68.57 156.82 52.23 225.12 66.09 201.3 104.92"/><polygon class="dm" points="136.32 85.18 180.39 48.3 204.36 96.24 136.32 85.18"/><polygon class="df" points="219.76 70.55 180.39 48.3 204.36 96.24 219.76 70.55"/><polygon class="dp" points="219.76 70.55 180.39 48.3 209.11 47.53 219.76 70.55"/><polygon class="df" points="136.32 85.18 180.39 48.3 136.07 56.95 136.32 85.18"/><polygon class="dp" points="162.8 40.28 180.39 48.3 136.07 56.95 162.8 40.28"/><polygon class="dh" points="162.8 40.28 180.39 48.3 209.11 47.53 162.8 40.28"/><circle class="gu" cx="204.52" cy="95.86" r="3.01"/><circle class="gu" cx="180.02" cy="48.51" r="3.01"/><circle class="gu" cx="136.37" cy="85.3" r="3.01"/><rect class="fj" x="147.05" y="49.93" width="53.28" height="53.28" transform="translate(70.13 235.66) rotate(-80.73)"/><path d="M151.87,46.24l52.15,8.51-8.51,52.15-52.15-8.51,8.51-52.15M151.5,45.73l-8.66,53.02,53.02,8.66,8.66-53.02-53.02-8.66h0Z"/><line class="dl" x1="146.42" y1="88.04" x2="144.9" y2="97.39"/><polygon points="145.22 88.68 146.36 88.4 147.36 89.03 146.7 86.31 145.22 88.68"/><line class="dl" x1="154.01" y1="98.59" x2="144.66" y2="97.07"/><polygon points="153.37 97.39 153.65 98.53 153.02 99.53 155.74 98.88 153.37 97.39"/><line class="fc" x1="165.75" y1="94.85" x2="173.69" y2="76.57"/><line class="ex" x1="157.81" y1="65.23" x2="173.69" y2="76.57"/><line class="ey" x1="191.92" y1="63.45" x2="173.69" y2="76.57"/><circle class="gu" cx="219.29" cy="70.39" r="2.53"/><circle class="gu" cx="180.02" cy="48.51" r="2.53"/><circle class="gu" cx="136.37" cy="85.3" r="3.01"/><circle class="gu" cx="136.37" cy="57.22" r="2.53"/><circle class="gu" cx="204.36" cy="95.66" r="3.01"/><circle class="gu" cx="209.15" cy="47.56" r="2.25"/><circle class="gu" cx="162.77" cy="40.18" r="2.25"/><circle class="fe" cx="173.69" cy="76.57" r="2.5"/><rect class="dk" x="233.6" y="40.85" width="29.01" height="29.01"/><line class="dr" x1="235.25" y1="63.59" x2="235.25" y2="68.21"/><polygon points="234.36 64.26 235.25 63.88 236.14 64.26 235.25 62.15 234.36 64.26"/><line class="dr" x1="239.88" y1="68.21" x2="235.25" y2="68.21"/><polygon points="239.21 67.32 239.58 68.21 239.21 69.1 241.31 68.21 239.21 67.32"/><line class="ec" x1="243.82" y1="65.22" x2="248.11" y2="55.35"/><line class="el" x1="239.53" y1="49.23" x2="248.11" y2="55.35"/><line class="es" x1="257.95" y1="48.27" x2="248.11" y2="55.35"/><circle class="fe" cx="248.11" cy="55.35" r="1.62"/><path class="dj" d="M205.08,59.69s6.29-2.51,13.68-2.51c4.77,0,8.22.52,10.53,1.07"/><polygon points="233.06 59.52 227.03 59.99 228.99 58.21 228.43 55.63 233.06 59.52"/><rect class="dw" x="233.6" y="78.43" width="29.01" height="29.01"/><line class="dr" x1="235.25" y1="101.17" x2="235.25" y2="105.8"/><polygon points="234.36 101.84 235.25 101.47 236.14 101.84 235.25 99.74 234.36 101.84"/><line class="dr" x1="239.88" y1="105.8" x2="235.25" y2="105.8"/><polygon points="239.21 104.91 239.58 105.8 239.21 106.69 241.31 105.8 239.21 104.91"/><line class="ed" x1="251.53" y1="81.7" x2="248.11" y2="92.94"/><line class="ek" x1="254.96" y1="102.96" x2="248.11" y2="92.94"/><line class="et" x1="240.57" y1="96.85" x2="248.11" y2="92.94"/><path d="M229.52,102.35s.03.13.03.19c-.05.46-.37,1.08-.37,1.52,0,.21.13.26.31.17.21-.11.53-.62.66-.84.11-.2.16-.45.21-.67.04-.16.03-.43.25-.43.24,0,.2.14.17.31-.09.43-.22.86-.32,1.28-.02.07-.09.32-.04.37.05.05.18-.06.22-.09.06-.05.14-.19.23-.12.06.05,0,.11-.05.16-.14.17-.4.39-.64.37s-.18-.2-.16-.36.08-.31.12-.47c-.03,0-.03.02-.04.03-.23.25-.37.61-.72.74-.44.17-.64-.08-.59-.51.04-.38.23-.82.31-1.2.07-.31-.07-.24-.25-.09-.06.05-.13.18-.21.1-.06-.05,0-.1.03-.14.15-.19.51-.44.77-.38.02,0,.07.03.08.04Z"/><path d="M232.05,103.06v1.94c0,.06.08.14.13.16.1.02.25-.03.18.14-.26-.01-.52-.02-.78-.01-.11,0-.23.07-.18-.11.16-.01.33,0,.35-.21-.03-.45.05-.99,0-1.43-.03-.23-.28-.02-.38-.02-.04,0-.06-.06-.06-.09l.73-.37Z"/><path d="M236.96,111.13c-.08-.08,0-.36.02-.47.02-.09.06-.19.08-.28,0-.02.02-.03,0-.05-.23.32-.52.81-.96.84-.36.03-.42-.29-.38-.58.06-.39.23-.8.31-1.19,0-.05.05-.17,0-.2-.04-.03-.18.07-.22.1-.07.05-.14.19-.23.13-.07-.04-.02-.1.01-.14.16-.19.49-.43.75-.4.18.02.15.17.13.3-.08.4-.24.81-.32,1.21-.04.19-.11.55.21.45.25-.08.61-.66.73-.89.1-.18.15-.45.2-.66.05-.18.03-.43.28-.41.17.01.18.09.15.24-.08.48-.26.99-.36,1.47-.05.26-.05.38.21.17.04-.03.12-.13.15-.14.04,0,.11.05.1.09,0,.03-.21.23-.25.27-.14.12-.37.25-.56.18-.01,0-.04-.02-.05-.03Z"/><path d="M238.41,111.64h.7c.14,0,.2-.36.22-.36l.09.02c0,.2-.04.39-.09.59h-1.23c-.01-.17.06-.31.15-.45.31-.46,1.02-.78.81-1.44-.06-.2-.21-.25-.41-.22-.09.01-.24.09-.25.2,0,.05.03.08.04.12.04.25-.32.27-.32.04,0-.16.16-.33.29-.4.43-.25,1.06-.03.99.54-.04.38-.57.72-.81,1-.09.1-.19.23-.19.37Z"/><circle class="fe" cx="248.11" cy="92.94" r="1.62"/><line class="dn" x1="248.45" y1="72.33" x2="248.45" y2="75.2"/><polygon points="248.45 76.97 247.43 74.48 248.45 75.07 249.47 74.48 248.45 76.97"/><g class="gl"><path d="M218.24,121.35l.02.02v.21c-.17.1-.57.24-.89.24s-.5-.21-.5-.57c0-.13.1-.55.16-.86l.52-2.51c.13-.61.25-1.21.26-1.55l.02-.02c.33-.02.5-.07.71-.15.05,0,.06.02.06.08-.15.48-.25.9-.38,1.5l-.58,2.73c-.04.22-.1.41-.1.61,0,.43.3.33.69.26Z"/><path d="M220.96,118.23c.98,0,1.33.64,1.33,1.32,0,.72-.38,1.5-.97,1.93-.32.23-.7.34-1.14.34-.9,0-1.35-.6-1.35-1.33,0-.65.26-1.16.57-1.52.37-.42.92-.74,1.55-.74ZM219.63,119.92c-.04.16-.06.35-.06.54,0,.52.14,1.03.75,1.03.22,0,.53-.1.78-.42.24-.31.46-.74.46-1.6,0-.6-.23-.92-.72-.92-.6,0-1.07.66-1.22,1.36Z"/><path d="M223.93,119.09c-.2.31-.4.85-.4,1.38,0,.61.3.95.72.95.26,0,.52-.06.85-.34h.02l.1.17c-.38.41-.74.57-1.18.57-.73,0-1.23-.5-1.23-1.32,0-.71.29-1.26.66-1.63.39-.41.89-.64,1.32-.64.36,0,.71.1.9.22l.02.02-.31.66h-.09c-.11-.36-.32-.58-.6-.58s-.57.19-.79.54Z"/><path d="M228.57,121.15c0,.18.1.26.23.26.08,0,.24-.02.38-.06l.02.02v.21c-.17.09-.44.24-.76.24-.24,0-.5-.11-.5-.42,0-.07,0-.17.06-.38l.1-.42-.02-.02c-.48.71-.86,1.23-1.42,1.23-.67,0-.82-.57-.82-1.02,0-1.26,1.34-2.55,2.1-2.55.32,0,.42,0,.64.02.14.02.48-.02.61-.02l-.57,2.38c-.05.22-.06.38-.06.51ZM228.47,118.66c-.16-.06-.29-.08-.5-.08-.73,0-1.47,1.25-1.47,2.09,0,.45.1.68.38.68.26,0,.92-.65,1.31-1.37.2-.51.28-1.33.28-1.33Z"/><path d="M231.26,121.35l.02.02v.21c-.17.1-.57.24-.89.24s-.5-.21-.5-.57c0-.13.1-.55.16-.86l.52-2.51c.13-.61.25-1.21.26-1.55l.02-.02c.33-.02.5-.07.71-.15.05,0,.06.02.06.08-.15.48-.25.9-.38,1.5l-.58,2.73c-.04.22-.1.41-.1.61,0,.43.3.33.69.26Z"/><path d="M234.89,117.32l.02-.02c.33-.02.4-.1.62-.18.05,0,.07.02.05.08-.13.46-.15.51-.28,1.11h.86s.06.02.05.05l-.04.2c-.02.07-.13.1-.21.1h-.74l-.24,1.14c-.1.48-.19.8-.24,1.04-.07.33-.03.54.16.54.13,0,.34,0,.58-.12l.05.22c-.29.22-.7.34-1.04.34-.37,0-.51-.33-.44-.71.04-.24.17-.74.28-1.22l.27-1.23h-.51s-.03,0-.02-.03l.06-.29s.02-.03.03-.03h.52c.1-.46.13-.68.21-.99Z"/><path d="M237.56,118.91c.27-.31.77-.68,1.14-.68.14,0,.19.02.32.06l.03.03-.29.63-.07.02c-.12-.11-.29-.11-.44-.11-.12,0-.34.04-.53.18-.13.1-.22.26-.27.42l-.18.85c-.13.61-.2.98-.23,1.44l-.02.02s-.13-.02-.38-.02-.39.02-.39.02v-.02c.14-.43.25-.84.38-1.44l.09-.44c.13-.6.17-1.06.11-1.42l.02-.02c.24-.02.46-.09.66-.17.05,0,.07,0,.06.08,0,0,.02.25-.01.59h0s.02,0,.02,0Z"/><path d="M241.64,121.15c0,.18.1.26.23.26.08,0,.24-.02.38-.06l.02.02v.21c-.17.09-.44.24-.76.24-.24,0-.5-.11-.5-.42,0-.07,0-.17.06-.38l.1-.42-.02-.02c-.48.71-.86,1.23-1.42,1.23-.67,0-.82-.57-.82-1.02,0-1.26,1.34-2.55,2.1-2.55.32,0,.42,0,.64.02.14.02.48-.02.61-.02l-.57,2.38c-.05.22-.06.38-.06.51ZM241.55,118.66c-.16-.06-.29-.08-.5-.08-.73,0-1.47,1.25-1.47,2.09,0,.45.1.68.38.68.26,0,.92-.65,1.31-1.37.2-.51.28-1.33.28-1.33Z"/><path d="M245.77,121.74l-.02.02s-.14-.02-.38-.02-.39.02-.39.02v-.02c.16-.43.25-.84.38-1.44l.17-.78c.14-.65.02-.81-.34-.81-.26,0-.71.18-1.18.66l-.2.94c-.13.61-.2.98-.23,1.44l-.02.02s-.13-.02-.38-.02-.39.02-.39.02v-.02c.14-.43.25-.84.38-1.44l.09-.44c.13-.6.17-1.06.11-1.42l.02-.02c.24-.02.46-.09.66-.17.05,0,.07,0,.06.08,0,0,.02.26-.02.6l.02.02c.58-.6,1.14-.72,1.41-.72.65,0,.88.43.7,1.26-.06.26-.14.55-.19.81-.13.61-.2.98-.23,1.44Z"/><path d="M246.88,120.96c.1.34.5.54.82.54.35,0,.7-.19.7-.63,0-.27-.24-.51-.52-.68-.24-.15-.5-.33-.62-.57-.04-.08-.06-.19-.06-.31,0-.82.77-1.08,1.37-1.08.38,0,.66.14.85.26v.02s-.22.54-.22.54h-.11c-.06-.22-.26-.5-.65-.5-.33,0-.62.15-.62.5,0,.4.27.6.62.78.47.24.61.58.61.87,0,.64-.53,1.12-1.4,1.12-.29,0-.7-.06-1.1-.22l.22-.63h.11Z"/><path d="M250.62,118.66h-.56s-.04,0-.03-.05l.03-.14c.01-.06.07-.16.22-.16h.42l.08-.32c.16-.61.33-.83.7-1.22.37-.39.86-.61,1.36-.61.15,0,.34.07.39.11v.02c-.12.15-.24.4-.34.62h-.09c-.05-.15-.24-.27-.47-.27-.46,0-.73.38-.82.82-.03.14-.07.42-.13.72l-.03.13h.9s.06.02.05.05l-.04.2c-.02.07-.13.1-.21.1h-.78l-.56,2.54c-.16.73-.51,1.42-.82,1.77-.33.39-.75.61-1.21.61-.14,0-.32-.07-.37-.11v-.02c.11-.15.23-.4.33-.62h.08c.05.15.2.3.41.3.34,0,.54-.37.71-.85.15-.42.33-1.51.53-2.43l.26-1.19Z"/><path d="M254.46,118.23c.98,0,1.33.64,1.33,1.32,0,.72-.38,1.5-.97,1.93-.32.23-.7.34-1.14.34-.9,0-1.35-.6-1.35-1.33,0-.65.26-1.16.57-1.52.37-.42.92-.74,1.55-.74ZM253.13,119.92c-.04.16-.06.35-.06.54,0,.52.14,1.03.75,1.03.22,0,.53-.1.78-.42.24-.31.46-.74.46-1.6,0-.6-.23-.92-.72-.92-.6,0-1.07.66-1.22,1.36Z"/><path d="M257.55,118.91c.27-.31.77-.68,1.14-.68.14,0,.19.02.32.06l.03.03-.29.63-.07.02c-.12-.11-.29-.11-.44-.11-.12,0-.34.04-.53.18-.13.1-.22.26-.27.42l-.18.85c-.13.61-.2.98-.23,1.44l-.02.02s-.13-.02-.38-.02-.39.02-.39.02v-.02c.14-.43.25-.84.38-1.44l.09-.44c.13-.6.17-1.06.11-1.42l.02-.02c.24-.02.46-.09.66-.17.05,0,.07,0,.06.08,0,0,.02.25-.01.59h0s.02,0,.02,0Z"/><path d="M261.87,121.74l-.02.02s-.14-.02-.38-.02-.39.02-.39.02v-.02c.16-.43.25-.84.38-1.44l.17-.78c.14-.65.02-.81-.34-.81-.26,0-.61.18-1.08.66l-.2.94c-.13.61-.2.98-.23,1.44l-.02.02s-.13-.02-.38-.02-.39.02-.39.02v-.02c.14-.43.25-.84.38-1.44l.09-.44c.13-.6.17-1.06.11-1.42l.02-.02c.24-.02.46-.09.66-.17.05,0,.07,0,.06.08,0,0,.02.26-.02.6l.02.02c.58-.6,1.03-.72,1.3-.72.45,0,.7.21.75.62.55-.47.9-.62,1.33-.62.86,0,.82.56.67,1.27l-.17.8c-.13.61-.2.98-.23,1.44l-.02.02s-.1-.02-.38-.02-.4.02-.4.02v-.02c.16-.43.26-.84.38-1.44l.19-.9c.11-.54,0-.71-.44-.71-.3,0-.51.13-.95.51,0,.09-.03.19-.05.29-.06.26-.14.55-.19.81-.13.61-.2.98-.23,1.44ZM262.32,118.86s0,0,0,0c0-.02,0-.02,0,0Z"/><path d="M267.65,121.15c0,.18.1.26.23.26.08,0,.24-.02.38-.06l.02.02v.21c-.17.09-.44.24-.76.24-.24,0-.5-.11-.5-.42,0-.07,0-.17.06-.38l.1-.42-.02-.02c-.48.71-.86,1.23-1.42,1.23-.67,0-.82-.57-.82-1.02,0-1.26,1.34-2.55,2.1-2.55.32,0,.42,0,.64.02.14.02.48-.02.61-.02l-.57,2.38c-.05.22-.06.38-.06.51ZM267.55,118.66c-.16-.06-.29-.08-.5-.08-.73,0-1.47,1.25-1.47,2.09,0,.45.1.68.38.68.26,0,.92-.65,1.31-1.37.2-.51.28-1.33.28-1.33Z"/><path d="M269.88,117.32l.02-.02c.33-.02.4-.1.62-.18.05,0,.07.02.05.08-.13.46-.15.51-.28,1.11h.86s.06.02.05.05l-.04.2c-.02.07-.13.1-.21.1h-.74l-.24,1.14c-.1.48-.19.8-.24,1.04-.07.33-.03.54.16.54.13,0,.34,0,.58-.12l.05.22c-.29.22-.7.34-1.04.34-.37,0-.51-.33-.44-.71.04-.24.17-.74.28-1.22l.27-1.23h-.51s-.03,0-.02-.03l.06-.29s.02-.03.03-.03h.52c.1-.46.13-.68.21-.99Z"/><path d="M272.04,118.41l.02-.02c.32-.02.52-.08.74-.16.05,0,.07.02.05.08-.17.49-.25.82-.37,1.42l-.12.57c-.13.61-.19.98-.23,1.44l-.02.02s-.11-.02-.38-.02-.4.02-.4.02v-.02c.15-.43.26-.84.38-1.44l.09-.44c.13-.6.22-1.1.23-1.45ZM272.71,116.54c.22,0,.41.19.41.41s-.19.41-.41.41-.41-.19-.41-.41.19-.41.41-.41Z"/><path d="M275.52,118.23c.98,0,1.33.64,1.33,1.32,0,.72-.38,1.5-.97,1.93-.32.23-.7.34-1.14.34-.9,0-1.35-.6-1.35-1.33,0-.65.26-1.16.57-1.52.37-.42.92-.74,1.55-.74ZM274.2,119.92c-.04.16-.06.35-.06.54,0,.52.14,1.03.75,1.03.22,0,.53-.1.78-.42.24-.31.46-.74.46-1.6,0-.6-.23-.92-.72-.92-.6,0-1.07.66-1.22,1.36Z"/><path d="M280.26,121.74l-.02.02s-.14-.02-.38-.02-.39.02-.39.02v-.02c.16-.43.25-.84.38-1.44l.17-.78c.14-.65.02-.81-.34-.81-.26,0-.71.18-1.18.66l-.2.94c-.13.61-.2.98-.23,1.44l-.02.02s-.13-.02-.38-.02-.39.02-.39.02v-.02c.14-.43.25-.84.38-1.44l.09-.44c.13-.6.17-1.06.11-1.42l.02-.02c.24-.02.46-.09.66-.17.05,0,.07,0,.06.08,0,0,.02.26-.02.6l.02.02c.58-.6,1.14-.72,1.41-.72.65,0,.88.43.7,1.26-.06.26-.14.55-.19.81-.13.61-.2.98-.23,1.44Z"/></g><rect class="gv" x="2.37" y="-1.04" width="505.76" height="13.18"/><path class="gv" d="M507.12-.04v11.18H3.36V-.04h503.76M509.12-2.04H1.37v15.17h507.75V-2.04h0Z"/></g><g id="ar"><polygon class="dd" points="345.72 102.92 274.97 91.47 276.28 66.57 301.24 50.23 369.54 64.09 345.72 102.92"/><polygon class="dm" points="280.73 83.18 324.8 46.3 348.78 94.24 280.73 83.18"/><polygon class="df" points="364.17 68.55 324.8 46.3 348.78 94.24 364.17 68.55"/><polygon class="dp" points="364.17 68.55 324.8 46.3 353.53 45.53 364.17 68.55"/><polygon class="df" points="280.73 83.18 324.8 46.3 280.48 54.95 280.73 83.18"/><polygon class="dp" points="307.21 38.28 324.8 46.3 280.48 54.95 307.21 38.28"/><polygon class="dh" points="307.21 38.28 324.8 46.3 353.53 45.53 307.21 38.28"/><line class="eh" x1="322.87" y1="58.95" x2="318.1" y2="74.57"/><line class="ef" x1="326.68" y1="87.12" x2="318.1" y2="74.57"/><line class="ei" x1="353.9" y1="75.93" x2="345.92" y2="69.7"/><line class="ee" x1="349.14" y1="84.58" x2="345.92" y2="69.7"/><line class="ep" x1="358.4" y1="69.7" x2="345.92" y2="69.7"/><line class="ej" x1="286.55" y1="58.23" x2="295.34" y2="61.48"/><line class="eg" x1="306.66" y1="54.34" x2="295.34" y2="61.48"/><line class="er" x1="286.45" y1="71.79" x2="295.34" y2="61.48"/><line class="en" x1="314.83" y1="45.39" x2="304.19" y2="46.61"/><line class="fb" x1="306.19" y1="43.08" x2="304.19" y2="46.61"/><line class="ev" x1="298.54" y1="48.16" x2="304.19" y2="46.61"/><line class="eo" x1="340.05" y1="50.33" x2="347.5" y2="53.46"/><line class="fa" x1="354.47" y1="57.76" x2="347.5" y2="53.46"/><line class="eu" x1="350.78" y1="49.46" x2="347.5" y2="53.46"/><line class="em" x1="325.65" y1="44.51" x2="328.05" y2="43.86"/><line class="ez" x1="321.48" y1="42.43" x2="328.05" y2="43.86"/><line class="ew" x1="332.79" y1="43.85" x2="328.05" y2="43.86"/><line class="eq" x1="307.62" y1="80.02" x2="318.1" y2="74.57"/><circle class="fe" cx="318.1" cy="74.57" r="2.5"/><circle class="fe" cx="345.92" cy="69.7" r="2.5"/><circle class="fe" cx="295.34" cy="61.48" r="2.5"/><circle class="fe" cx="347.5" cy="53.46" r="1.75"/><circle class="fe" cx="304.17" cy="46.66" r="1.75"/><circle class="fe" cx="328.07" cy="43.86" r="1.1"/><g class="gl"><path d="M281.58,101c-.73-.12-.74-.68-.55-1.19l.36-.94c.22-.58.35-.94.45-1.39l.03-.02s.1.04.37.08c.28.04.4.04.4.04v.02c-.23.39-.39.79-.61,1.36l-.29.75c-.26.68-.13.83.25.89.35.06.8-.22,1.1-.42l.38-.99c.22-.58.35-.94.45-1.39l.03-.02s.1.04.37.08c.28.04.4.04.4.04v.02c-.23.39-.39.79-.61,1.36l-.17.43c-.22.57-.37,1.15-.43,1.49l-.02.02c-.1-.03-.24-.06-.34-.08-.11-.02-.17-.02-.28-.02-.05,0-.07-.02-.06-.03l.15-.49h-.02c-.62.38-1.02.43-1.35.38Z"/><path d="M285.64,98.6c.02-.13.03-.26.03-.37l.02-.02c.24.02.47-.01.67-.06.05,0,.06.01.05.09,0,0,0,.07-.02.18-.01.1-.04.22-.07.36h.03c.57-.48.96-.49,1.21-.45.66.1,1.01.74.9,1.44-.13.8-.68,1.39-1.21,1.69-.39.23-.84.32-1.29.25-.29-.04-.47-.14-.64-.28l-.13.34c-.22.57-.41,1.09-.51,1.54l-.02.02s-.1-.04-.37-.08c-.28-.04-.4-.04-.4-.04v-.02c.22-.4.45-.94.67-1.51l.79-2.04c.15-.39.25-.73.3-1.02ZM285.51,100.92c.16.36.4.41.53.43.51.08.88-.13,1.14-.45.25-.31.46-.74.54-1.22.09-.57-.12-.94-.5-1-.27-.04-.72.14-1.05.52l-.66,1.71Z"/><path d="M289.79,102.31c-.63-.1-1.03-.69-.91-1.44.13-.79.62-1.34,1.15-1.65.42-.25.91-.36,1.4-.28.16.03.46.15.6.27l.19-.5c.22-.58.43-1.16.5-1.49l.03-.02c.33.03.5,0,.73-.04.05,0,.06.03.04.09-.23.46-.39.86-.61,1.42l-.9,2.35c-.24.63-.36,1.03-.41,1.29-.01.08-.02.14-.02.2l-.02.02c-.1-.03-.24-.06-.34-.08-.12-.02-.15-.01-.27-.02-.03,0-.05-.02-.05-.03,0,0,.06-.3.12-.5h-.02c-.42.31-.83.46-1.21.4ZM291.79,99.83c-.08-.32-.2-.53-.58-.59-.24-.04-.59-.01-.92.3-.25.24-.61.84-.7,1.42-.09.6.16.9.56.97.25.04.57-.11,1-.42l.64-1.68Z"/><path d="M295.27,102.5c-.03.17.05.27.19.29.08.01.24.02.39,0v.03s-.02.21-.02.21c-.18.06-.47.17-.79.12-.24-.04-.47-.19-.42-.5.01-.07.03-.17.11-.36l.17-.39v-.02c-.6.63-1.05,1.08-1.61.99-.66-.11-.72-.69-.65-1.13.2-1.24,1.72-2.31,2.48-2.19.32.05.42.07.63.12.14.04.47.05.61.07l-.94,2.26c-.09.21-.12.37-.14.5ZM295.57,100.03c-.15-.09-.28-.12-.48-.16-.72-.12-1.65,1-1.78,1.84-.07.44,0,.69.26.73.25.04,1.01-.49,1.51-1.14.28-.47.49-1.27.49-1.27Z"/><path d="M298.08,99.07l.02-.02c.33.03.41-.03.64-.08.05,0,.06.03.04.09-.21.44-.23.48-.45,1.05l.85.14s.06.03.04.05l-.07.19c-.03.07-.15.08-.23.07l-.73-.12-.42,1.09c-.18.46-.31.76-.4.99-.12.31-.11.53.07.55.13.02.33.06.59-.02l.02.23c-.32.17-.75.22-1.08.17-.36-.06-.45-.41-.33-.77.08-.23.29-.7.46-1.16l.46-1.17-.51-.08s-.03-.01-.02-.04l.1-.27s.02-.03.04-.03l.51.08c.17-.44.23-.65.36-.95Z"/><path d="M299.66,102.46c-.11.7.15,1.06.5,1.12.38.06.98-.22,1.27-.58l.05.02c0,.11-.02.32.01.41-.38.39-1.02.58-1.68.48-.67-.11-.98-.73-.88-1.38.16-1,1.08-2.23,2.47-2,.58.09.76.39.7.73-.05.3-.32,1.12-2.37.88-.02.06-.06.25-.07.33ZM301.18,100.78c-.37-.06-.91.07-1.36,1.09.93.11,1.59-.05,1.7-.71.03-.21-.07-.33-.34-.37Z"/><path d="M303.25,104.45c-.63-.1-1.03-.69-.91-1.44.13-.79.62-1.34,1.15-1.65.42-.25.91-.36,1.4-.28.16.03.46.15.6.27l.19-.5c.22-.58.43-1.16.5-1.49l.02-.02c.33.03.5,0,.73-.04.05,0,.06.03.04.09-.23.46-.39.86-.61,1.43l-.9,2.35c-.24.63-.36,1.03-.4,1.29-.01.08-.02.14-.02.2l-.02.02c-.1-.03-.24-.06-.34-.08-.11-.02-.16-.01-.26-.02-.03,0-.05-.02-.05-.03,0,0,.06-.3.12-.5h-.03c-.42.31-.83.46-1.2.4ZM305.25,101.98c-.08-.32-.2-.53-.58-.59-.24-.04-.59-.01-.92.3-.25.24-.61.84-.7,1.42-.09.6.16.9.56.97.25.04.57-.11.99-.42l.64-1.68Z"/><path d="M309.17,104.01c-.18.09-.43.26-.46.43-.03.18.15.32.44.43.54.22,1.16.43,1.44.7.25.23.25.58.22.77-.07.41-.35.65-.66.76-.48.17-1.39.07-1.79,0-.61-.1-1.17-.44-1.1-.89.05-.34.19-.57.44-.78.17-.14.38-.23.62-.32-.13-.11-.2-.33-.17-.54.06-.37.44-.62.81-.74-.17-.21-.27-.55-.21-.9.12-.77.87-1.12,1.58-1,.24.04.51.15.65.17.28.04.53-.03.57-.31.01-.07,0-.14-.05-.22v-.03c.16-.01.31-.05.42-.12h.03c.07.17.08.32.05.49-.05.29-.3.5-.65.44-.06,0-.14-.02-.17-.03h-.03c.16.23.28.58.23.87-.14.86-.9,1.2-1.61,1.09-.23-.04-.54-.16-.63-.29ZM308.22,105.5c-.17.15-.29.35-.33.59-.07.43.47.67.72.71.37.06,1.05.14,1.41-.01.14-.06.22-.15.25-.33.02-.13,0-.36-.18-.53-.27-.25-.78-.46-1.31-.64-.05-.02-.1-.02-.15-.03-.16.08-.3.14-.41.23ZM310.24,102.25c-.47-.08-.78.32-.85.77-.07.43.08.91.54.98.33.05.76-.21.86-.84.08-.48-.12-.84-.55-.91Z"/><path d="M313.38,103.12c.32-.26.87-.55,1.24-.49.14.02.18.05.3.11l.02.04-.38.58h-.07c-.1-.12-.27-.15-.42-.17-.12-.02-.34-.01-.55.1-.14.08-.26.22-.33.37l-.31.81c-.22.58-.35.94-.45,1.38l-.03.02s-.12-.04-.37-.08-.39-.04-.39-.04v-.03c.21-.4.38-.79.6-1.36l.16-.42c.22-.57.34-1.01.33-1.39l.02-.02c.25.01.47-.01.67-.06.05,0,.07.01.05.09,0,0-.02.25-.11.58h0s.02,0,.02,0Z"/><path d="M317.07,105.97c-.03.17.05.27.19.29.08.01.24.02.39,0v.03s-.02.21-.02.21c-.18.06-.47.17-.79.12-.24-.04-.47-.19-.42-.5.01-.07.03-.17.12-.36l.17-.39v-.02c-.6.63-1.05,1.08-1.61.99-.66-.11-.72-.69-.65-1.13.2-1.24,1.72-2.31,2.48-2.19.31.05.42.07.63.12.14.04.47.05.6.07l-.94,2.26c-.08.21-.12.37-.14.5ZM317.36,103.5c-.15-.09-.28-.13-.48-.16-.72-.11-1.65,1-1.78,1.84-.07.44,0,.69.26.73.25.04,1.01-.5,1.51-1.14.28-.47.49-1.27.49-1.27Z"/><path d="M319.24,107c-.63-.1-1.03-.69-.91-1.44.12-.79.62-1.34,1.15-1.65.42-.25.91-.36,1.4-.28.16.03.46.15.6.27l.19-.5c.22-.58.43-1.16.49-1.49l.03-.02c.33.03.5,0,.73-.04.05,0,.06.03.04.09-.23.46-.39.86-.61,1.43l-.9,2.35c-.24.63-.36,1.03-.4,1.29-.01.08-.02.14-.02.2l-.02.02c-.1-.03-.24-.06-.34-.08-.12-.02-.16-.01-.27-.02-.03,0-.05-.02-.05-.03,0,0,.06-.3.12-.5h-.02c-.42.31-.83.46-1.2.4ZM321.24,104.53c-.08-.32-.21-.53-.58-.59-.24-.04-.59-.01-.92.3-.25.24-.61.84-.7,1.42-.1.6.16.9.56.96.25.04.57-.11,1-.42l.64-1.68Z"/><path d="M323.35,104.21l.02-.02c.32.03.53,0,.75-.04.05,0,.06.04.04.09-.24.46-.38.78-.59,1.35l-.21.54c-.22.58-.35.94-.45,1.39l-.02.02s-.1-.04-.37-.08c-.28-.04-.4-.04-.4-.04v-.02c.22-.4.39-.79.61-1.36l.16-.42c.22-.57.39-1.06.45-1.39ZM324.31,102.46c.21.03.37.25.34.47-.03.21-.25.37-.47.34-.21-.03-.37-.25-.34-.47.03-.21.25-.37.47-.34Z"/><path d="M325.09,106.51c-.11.7.15,1.06.5,1.12.38.06.98-.22,1.27-.58h.05c0,.12-.01.34.01.43-.38.39-1.02.58-1.68.48-.67-.11-.98-.73-.88-1.38.16-1,1.08-2.23,2.47-2,.58.09.76.39.71.73-.05.3-.32,1.12-2.37.88-.01.06-.06.25-.08.33ZM326.61,104.83c-.38-.06-.91.07-1.36,1.09.93.11,1.59-.05,1.7-.71.03-.21-.07-.33-.34-.37Z"/><path d="M330.44,108.7l-.02.02s-.14-.05-.38-.08c-.24-.04-.39-.04-.39-.04v-.02c.23-.4.38-.79.6-1.36l.29-.75c.24-.62.15-.79-.21-.85-.25-.04-.73.06-1.27.46l-.34.89c-.22.58-.35.94-.46,1.38l-.03.02s-.12-.04-.37-.08-.39-.04-.39-.04v-.03c.21-.4.38-.79.6-1.36l.16-.42c.22-.57.34-1.02.33-1.39l.02-.02c.25.02.47-.01.68-.06.05,0,.06.01.05.09,0,0-.02.26-.11.59v.03c.68-.5,1.25-.53,1.52-.49.64.1.8.57.5,1.36-.1.24-.22.52-.32.77-.22.58-.35.94-.46,1.38Z"/><path d="M333.25,104.67l.02-.02c.33.03.41-.03.64-.08.05,0,.06.03.04.09-.21.44-.23.48-.45,1.05l.85.13s.06.03.04.06l-.07.19c-.03.07-.15.08-.23.07l-.73-.12-.42,1.09c-.18.46-.31.76-.4.99-.12.31-.11.52.07.55.13.02.33.06.59-.03l.02.23c-.32.17-.75.22-1.08.17-.36-.06-.45-.41-.33-.77.08-.23.29-.7.46-1.16l.46-1.17-.51-.08s-.03-.01-.02-.04l.1-.27s.02-.03.04-.03l.51.08c.17-.44.23-.65.36-.95Z"/><path d="M334.05,108.49c.05.36.41.61.72.66.34.05.72-.07.79-.51.04-.27-.16-.54-.41-.76-.21-.19-.45-.4-.52-.66-.03-.08-.03-.19-.01-.31.13-.81.93-.95,1.52-.86.38.06.63.24.8.39v.03s-.3.49-.3.49h-.11c-.02-.24-.18-.55-.57-.61-.32-.05-.64.05-.69.4-.06.39.17.64.49.87.42.31.51.67.46.96-.1.63-.7,1.02-1.55.89-.28-.04-.68-.17-1.05-.39l.32-.59h.11Z"/></g></g><g id="cd"><polygon class="de" points="454.28 102.92 383.53 91.47 384.84 66.57 409.8 50.23 478.1 64.09 454.28 102.92"/><polygon class="dm" points="389.29 83.18 433.36 46.3 457.33 94.24 389.29 83.18"/><polygon class="df" points="472.73 68.55 433.36 46.3 457.33 94.24 472.73 68.55"/><polygon class="dp" points="472.73 68.55 433.36 46.3 462.09 45.53 472.73 68.55"/><polygon class="df" points="389.29 83.18 433.36 46.3 389.04 54.95 389.29 83.18"/><polygon class="dp" points="415.77 38.28 433.36 46.3 389.04 54.95 415.77 38.28"/><polygon class="dh" points="415.77 38.28 433.36 46.3 462.09 45.53 415.77 38.28"/><circle class="gu" cx="472.27" cy="68.39" r="2.53"/><circle class="gu" cx="433" cy="46.51" r="2.53"/><circle class="gu" cx="389.35" cy="83.3" r="3.01"/><circle class="gu" cx="389.35" cy="55.22" r="2.53"/><circle class="gu" cx="457.33" cy="93.66" r="3.01"/><circle class="gu" cx="462.12" cy="45.56" r="2.25"/><circle class="gu" cx="415.74" cy="38.18" r="2.25"/><g class="fm"><rect class="ge" x="430.24" y="26.21" width="5.51" height="5.51"/><path d="M435.53,26.43v5.06h-5.06v-5.06h5.06M435.98,25.98h-5.96v5.96h5.96v-5.96h0Z"/><rect class="ff" x="430.24" y="31.27" width="5.51" height="5.51"/><path d="M435.53,31.49v5.06h-5.06v-5.06h5.06M435.98,31.04h-5.96v5.96h5.96v-5.96h0Z"/><rect class="gi" x="430.24" y="36.33" width="5.51" height="5.51"/><path d="M435.53,36.56v5.06h-5.06v-5.06h5.06M435.98,36.11h-5.96v5.96h5.96v-5.96h0Z"/></g><g class="fq"><rect class="gq" x="377.71" y="85.33" width="5.51" height="5.51"/><path d="M382.99,85.56v5.06h-5.06v-5.06h5.06M383.44,85.11h-5.96v5.96h5.96v-5.96h0Z"/><rect class="gp" x="377.71" y="90.4" width="5.51" height="5.51"/><path d="M382.99,90.62v5.06h-5.06v-5.06h5.06M383.44,90.17h-5.96v5.96h5.96v-5.96h0Z"/><rect class="ga" x="377.71" y="95.46" width="5.51" height="5.51"/><path d="M382.99,95.68v5.06h-5.06v-5.06h5.06M383.44,95.23h-5.96v5.96h5.96v-5.96h0Z"/></g><g class="fn"><rect class="fl" x="460.84" y="97.7" width="5.51" height="5.51"/><path d="M466.12,97.92v5.06h-5.06v-5.06h5.06M466.57,97.47h-5.96v5.96h5.96v-5.96h0Z"/><rect class="go" x="460.84" y="102.76" width="5.51" height="5.51"/><path d="M466.12,102.99v5.06h-5.06v-5.06h5.06M466.57,102.54h-5.96v5.96h5.96v-5.96h0Z"/><rect class="gr" x="460.84" y="107.82" width="5.51" height="5.51"/><path d="M466.12,108.05v5.06h-5.06v-5.06h5.06M466.57,107.6h-5.96v5.96h5.96v-5.96h0Z"/></g><g class="fs"><rect class="gg" x="476.65" y="60.7" width="5.51" height="5.51"/><path d="M481.94,60.92v5.06h-5.06v-5.06h5.06M482.39,60.47h-5.96v5.96h5.96v-5.96h0Z"/><rect class="gs" x="476.65" y="65.76" width="5.51" height="5.51"/><path d="M481.94,65.99v5.06h-5.06v-5.06h5.06M482.39,65.54h-5.96v5.96h5.96v-5.96h0Z"/><rect class="fh" x="476.65" y="70.82" width="5.51" height="5.51"/><path d="M481.94,71.05v5.06h-5.06v-5.06h5.06M482.39,70.6h-5.96v5.96h5.96v-5.96h0Z"/></g><g class="fp"><rect class="gb" x="465.9" y="27.22" width="5.51" height="5.51"/><path d="M471.19,27.45v5.06h-5.06v-5.06h5.06M471.64,27h-5.96v5.96h5.96v-5.96h0Z"/><rect class="gc" x="465.9" y="32.28" width="5.51" height="5.51"/><path d="M471.19,32.51v5.06h-5.06v-5.06h5.06M471.64,32.06h-5.96v5.96h5.96v-5.96h0Z"/><rect class="fk" x="465.9" y="37.35" width="5.51" height="5.51"/><path d="M471.19,37.57v5.06h-5.06v-5.06h5.06M471.64,37.12h-5.96v5.96h5.96v-5.96h0Z"/></g><g class="fo"><rect class="gq" x="379.71" y="47.4" width="5.51" height="5.51"/><path d="M384.99,47.62v5.06h-5.06v-5.06h5.06M385.44,47.17h-5.96v5.96h5.96v-5.96h0Z"/><rect class="ff" x="379.71" y="52.46" width="5.51" height="5.51"/><path d="M384.99,52.69v5.06h-5.06v-5.06h5.06M385.44,52.24h-5.96v5.96h5.96v-5.96h0Z"/><rect class="fg" x="379.71" y="57.52" width="5.51" height="5.51"/><path d="M384.99,57.75v5.06h-5.06v-5.06h5.06M385.44,57.3h-5.96v5.96h5.96v-5.96h0Z"/></g><g class="fr"><rect class="dz" x="407.44" y="19.63" width="5.51" height="5.51"/><path d="M412.72,19.85v5.06h-5.06v-5.06h5.06M413.17,19.4h-5.96v5.96h5.96v-5.96h0Z"/><rect class="gk" x="407.44" y="24.69" width="5.51" height="5.51"/><path d="M412.72,24.92v5.06h-5.06v-5.06h5.06M413.17,24.47h-5.96v5.96h5.96v-5.96h0Z"/><rect class="gj" x="407.44" y="29.75" width="5.51" height="5.51"/><path d="M412.72,29.98v5.06h-5.06v-5.06h5.06M413.17,29.53h-5.96v5.96h5.96v-5.96h0Z"/></g><path d="M389.06,98.98c-.18.09-.43.26-.46.43-.03.18.15.32.44.44.54.22,1.16.43,1.44.7.25.23.25.58.22.77-.07.41-.35.65-.66.76-.48.17-1.39.07-1.79,0-.61-.1-1.17-.44-1.1-.89.05-.34.19-.57.44-.78.17-.14.38-.23.62-.31-.13-.11-.2-.33-.16-.54.06-.37.44-.62.81-.74-.17-.21-.27-.55-.21-.9.12-.77.87-1.12,1.58-1,.24.04.51.15.65.17.28.04.53-.03.57-.31.01-.07,0-.14-.05-.22v-.03c.16-.01.31-.05.42-.12h.03c.07.17.08.33.05.49-.05.28-.3.49-.64.44-.06,0-.14-.02-.17-.03h-.03c.16.23.28.57.23.87-.14.86-.9,1.2-1.61,1.09-.23-.04-.54-.16-.63-.29ZM388.1,100.47c-.17.15-.29.35-.33.59-.07.43.48.67.72.71.37.06,1.05.14,1.41-.01.14-.06.22-.15.25-.32.02-.13,0-.37-.18-.53-.28-.25-.78-.46-1.31-.64-.05-.01-.1-.02-.15-.03-.16.08-.3.14-.41.23ZM390.13,97.21c-.47-.08-.78.32-.85.77-.07.43.08.91.54.98.33.05.76-.21.86-.84.08-.48-.12-.85-.55-.91Z"/><path d="M393.09,100.53v.03s-.02.21-.02.21c-.19.08-.6.15-.91.1-.31-.05-.46-.28-.4-.64.02-.13.18-.53.29-.82l.91-2.4c.22-.58.43-1.15.5-1.49l.03-.02c.33.03.5,0,.73-.04.05,0,.06.03.04.09-.23.45-.39.85-.61,1.42l-1,2.61c-.08.21-.16.39-.19.58-.07.42.24.37.64.37Z"/><path d="M396.26,97.87c.97.15,1.21.84,1.1,1.51-.11.71-.61,1.42-1.26,1.75-.35.18-.74.23-1.18.16-.89-.14-1.24-.81-1.12-1.52.1-.64.44-1.11.8-1.42.43-.36,1.02-.59,1.65-.49ZM394.69,99.33c-.06.16-.11.34-.14.53-.08.51-.03,1.04.58,1.14.22.04.54-.01.84-.29.29-.26.58-.66.71-1.5.09-.59-.08-.95-.57-1.03-.6-.1-1.16.49-1.42,1.15Z"/><path d="M399.26,98.8c.38-.24.68-.34,1.06-.28.59.09,1.06.62.94,1.37-.23,1.45-1.67,2.15-2.48,2.02-.34-.05-.57-.25-.73-.48-.12.13-.31.25-.44.3-.11-.02-.18-.07-.22-.12.12-.15.2-.23.32-.52l1.21-3.13c.22-.58.43-1.16.5-1.49l.02-.02c.33.03.53.01.75-.03.05,0,.06.03.04.09-.24.46-.41.86-.63,1.42l-.34.88ZM398.86,101.57c.78.12,1.51-.61,1.68-1.67.09-.54-.15-.93-.54-.99-.09-.01-.44-.05-.87.2l-.77,2c.08.22.25.42.49.46Z"/><path d="M404.02,102.07c-.03.17.05.27.19.29.08.01.24.02.39,0v.03s-.02.21-.02.21c-.18.06-.47.17-.79.12-.24-.04-.47-.19-.42-.5.01-.07.03-.17.12-.36l.17-.39v-.02c-.6.63-1.05,1.08-1.61.99-.66-.11-.72-.69-.65-1.13.2-1.24,1.72-2.31,2.48-2.19.32.05.42.07.63.12.14.04.47.05.6.07l-.94,2.26c-.08.21-.12.37-.14.5ZM404.32,99.6c-.15-.09-.28-.12-.48-.16-.72-.11-1.65,1-1.78,1.84-.07.44,0,.69.26.73.25.04,1.01-.49,1.51-1.14.28-.47.49-1.27.49-1.27Z"/><path d="M406.65,102.69v.03s-.02.21-.02.21c-.19.08-.6.15-.91.1-.31-.05-.46-.28-.4-.64.02-.13.18-.53.29-.82l.91-2.4c.22-.58.43-1.15.5-1.49l.03-.02c.33.03.5,0,.73-.04.05,0,.06.03.04.09-.23.45-.39.85-.61,1.42l-1,2.61c-.08.21-.16.39-.19.59-.07.42.24.37.64.37Z"/><path d="M409.28,102.72c.05.36.41.61.72.66.34.05.72-.07.79-.51.04-.27-.16-.54-.41-.76-.22-.19-.44-.4-.52-.66-.03-.08-.04-.19-.02-.31.13-.8.93-.95,1.52-.86.38.06.63.24.8.39v.03s-.3.49-.3.49h-.11c-.02-.24-.18-.55-.57-.61-.32-.05-.64.05-.69.39-.06.39.17.64.49.87.43.31.51.67.46.96-.1.63-.7,1.02-1.55.89-.28-.05-.68-.17-1.05-.39l.32-.59h.11Z"/><path d="M413.56,101.5c-.25.28-.53.78-.61,1.3-.1.61.15.99.56,1.05.26.04.52.02.89-.2h.02s.08.19.08.19c-.43.34-.83.44-1.25.38-.72-.12-1.14-.69-1.01-1.5.11-.7.49-1.19.9-1.51.45-.34.98-.49,1.4-.42.36.06.69.21.86.36v.03s-.4.6-.4.6h-.09c-.05-.39-.22-.64-.5-.69-.28-.04-.59.1-.86.41Z"/><path d="M417.82,104.26c-.03.17.05.27.19.29.08.01.24.02.39,0v.03s-.02.21-.02.21c-.18.06-.47.17-.79.12-.24-.04-.47-.19-.42-.5.01-.07.03-.17.12-.36l.17-.39v-.02c-.6.63-1.05,1.08-1.61.99-.66-.11-.72-.69-.65-1.13.2-1.24,1.72-2.31,2.48-2.19.32.05.42.07.63.12.14.04.47.05.6.07l-.93,2.26c-.09.21-.12.37-.14.5ZM418.11,101.79c-.15-.09-.28-.12-.48-.16-.72-.11-1.65,1-1.78,1.84-.07.44,0,.69.26.73.25.04,1.01-.49,1.51-1.14.28-.47.49-1.27.49-1.27Z"/><path d="M420.44,104.88v.03s-.02.21-.02.21c-.19.08-.6.15-.92.1-.31-.05-.46-.28-.4-.64.02-.13.18-.53.29-.82l.91-2.4c.22-.58.44-1.15.5-1.49l.03-.02c.33.03.5,0,.73-.04.05,0,.06.03.04.09-.23.45-.39.85-.61,1.42l-1,2.61c-.08.21-.16.39-.19.58-.07.42.24.37.64.37Z"/><path d="M423.62,105.19c-.03.17.05.27.19.29.08.01.24.02.39,0v.03s-.02.21-.02.21c-.18.06-.47.17-.79.12-.24-.04-.47-.19-.42-.5.01-.07.03-.17.12-.36l.17-.39v-.02c-.6.63-1.05,1.08-1.61.99-.66-.11-.72-.69-.65-1.13.2-1.24,1.72-2.31,2.48-2.19.32.05.42.07.63.12.14.04.47.05.6.07l-.94,2.26c-.08.21-.12.37-.14.5ZM423.92,102.72c-.15-.09-.28-.12-.48-.16-.72-.11-1.65,1-1.78,1.84-.07.44,0,.69.26.73.25.04,1.01-.49,1.51-1.14.28-.47.49-1.27.49-1.27Z"/><path d="M426.43,103.37c.32-.26.87-.55,1.24-.49.14.02.18.04.3.1l.02.04-.38.58h-.07c-.1-.12-.27-.15-.42-.17-.12-.02-.34-.01-.55.1-.14.08-.26.22-.34.37l-.31.81c-.22.58-.35.94-.46,1.38l-.03.02s-.12-.04-.37-.08c-.25-.04-.39-.04-.39-.04v-.03c.21-.4.38-.79.6-1.36l.16-.42c.22-.57.33-1.02.33-1.39l.02-.02c.25.02.47-.01.67-.06.05,0,.07.01.05.09,0,0-.02.25-.11.58h0s.02,0,.02,0Z"/><path d="M430.42,106.95c-.73-.12-.74-.68-.55-1.19l.36-.94c.22-.58.35-.94.45-1.39l.02-.02s.1.04.37.08c.28.04.4.04.4.04v.02c-.23.39-.39.79-.61,1.36l-.29.76c-.26.68-.13.83.25.89.35.06.8-.22,1.1-.42l.38-.99c.22-.58.35-.94.45-1.39l.02-.02s.1.04.37.08c.28.04.4.04.4.04v.02c-.23.39-.39.79-.61,1.36l-.17.43c-.22.57-.37,1.15-.43,1.49l-.02.02c-.1-.03-.24-.06-.34-.08-.11-.02-.17-.02-.28-.02-.05,0-.07-.02-.06-.03l.15-.49h-.02c-.62.38-1.02.43-1.35.38Z"/><path d="M434.47,104.55c.02-.13.03-.25.03-.37l.02-.02c.25.01.47-.01.67-.06.05,0,.06,0,.05.09,0,0,0,.07-.03.18-.01.09-.04.22-.07.36h.03c.57-.48.96-.49,1.21-.45.66.1,1.01.74.9,1.44-.13.8-.68,1.39-1.21,1.69-.39.22-.84.32-1.29.25-.29-.04-.47-.14-.64-.28l-.13.34c-.22.57-.41,1.09-.51,1.54l-.02.02s-.1-.04-.37-.08c-.28-.04-.4-.04-.4-.04v-.02c.23-.4.45-.95.67-1.51l.78-2.04c.15-.39.25-.73.3-1.02ZM434.34,106.87c.16.36.4.41.53.43.51.08.88-.13,1.14-.45.26-.31.46-.74.54-1.22.09-.57-.12-.93-.5-1-.27-.04-.72.14-1.05.52l-.66,1.71Z"/><path d="M438.62,108.26c-.63-.1-1.03-.69-.91-1.44.13-.79.62-1.34,1.15-1.65.42-.25.91-.36,1.4-.28.16.03.45.15.6.27l.19-.5c.22-.58.43-1.16.5-1.49l.02-.02c.33.03.5,0,.73-.04.05,0,.06.03.04.09-.23.46-.39.86-.61,1.43l-.9,2.35c-.24.63-.36,1.03-.4,1.29-.01.08-.02.14-.02.2l-.02.02c-.1-.03-.24-.06-.34-.08-.11-.02-.15-.01-.26-.02-.03,0-.05-.02-.05-.03,0,0,.06-.3.12-.5h-.02c-.42.31-.82.46-1.21.4ZM440.62,105.78c-.08-.32-.2-.53-.58-.59-.24-.04-.59-.01-.92.3-.25.23-.61.84-.7,1.42-.09.6.16.9.56.97.25.04.57-.11,1-.42l.64-1.68Z"/><path d="M444.1,108.45c-.03.17.05.27.19.29.08.01.24.02.39,0v.03s-.02.21-.02.21c-.18.06-.47.17-.79.12-.24-.04-.47-.19-.42-.5.01-.07.03-.17.11-.36l.17-.39v-.02c-.6.63-1.05,1.08-1.61.99-.66-.11-.71-.69-.64-1.13.2-1.24,1.72-2.31,2.48-2.19.32.05.42.07.63.12.14.04.47.05.6.07l-.94,2.26c-.08.21-.12.37-.14.5ZM444.4,105.98c-.15-.09-.28-.12-.48-.16-.72-.11-1.65,1-1.78,1.84-.07.44,0,.69.26.73.25.04,1.01-.49,1.51-1.14.28-.47.49-1.27.49-1.27Z"/><path d="M446.91,105.02l.02-.02c.33.03.41-.03.64-.08.05,0,.06.03.04.09-.21.44-.23.48-.45,1.05l.85.13s.06.03.05.06l-.07.19c-.03.07-.15.08-.23.07l-.73-.12-.42,1.09c-.17.46-.31.76-.4.99-.12.31-.11.52.07.55.13.02.33.06.59-.03l.02.23c-.32.17-.74.22-1.07.17-.37-.06-.45-.41-.33-.77.08-.23.29-.7.46-1.16l.46-1.17-.5-.08s-.03-.01-.02-.04l.11-.27s.02-.03.04-.03l.51.08c.17-.44.23-.65.36-.95Z"/><path d="M448.5,108.41c-.11.7.15,1.06.5,1.12.38.06.98-.22,1.27-.58h.05c0,.12-.02.34.01.43-.38.39-1.02.58-1.68.48s-.98-.73-.88-1.38c.16-1,1.08-2.23,2.47-2,.58.09.76.39.7.73-.05.3-.32,1.12-2.37.88-.01.06-.06.25-.07.33ZM450.01,106.73c-.37-.06-.91.07-1.36,1.09.93.11,1.59-.05,1.7-.71.03-.21-.07-.33-.34-.37Z"/></g><g id="ct"><g class="gl"><path d="M5.44,3.38l.02-.03s.53.03.9.03c.33,0,1.66-.08,1.95-.08.78,0,1.38.1,1.77.37.62.43.77,1.05.77,1.45,0,1.13-.73,2.33-2.73,2.33-.39,0-.75-.03-.99-.11v.92c0,.83.04,1.57.13,2.2l-.02.03s-.51-.03-.88-.03-.91.03-.91.03v-.03c.08-.59.12-1.38.12-2.2v-2.7c0-.83-.04-1.57-.13-2.2ZM7.13,6.79c.14.08.59.11.87.11.64,0,1.19-.46,1.19-1.57,0-1.31-.53-1.5-1.18-1.5-.79,0-.88.17-.88.48v2.48Z"/><path d="M14.26,5.64c1.86,0,2.64,1.09,2.64,2.48,0,1.52-.98,2.46-2.66,2.46s-2.66-.9-2.66-2.37c0-1.71,1.11-2.57,2.68-2.57ZM13.14,7.96c0,.85.11,2.07,1.25,2.07.5,0,.95-.35.95-1.62,0-1.53-.22-2.22-1.15-2.22s-1.05.81-1.05,1.77Z"/><path d="M18.23,5.76l.03-.04c.19.01.5.03.78.03.31,0,.61-.03.76-.06.07,0,.1.03.1.11-.07.66-.11,1.13-.11,1.96v.73c0,.84.02,1.35.11,1.98l-.02.03c-.21-.02-.44-.03-.81-.03s-.59,0-.81.03l-.02-.03c.09-.59.11-1.16.11-1.98v-.6c0-.83-.02-1.65-.11-2.12ZM19.06,3.04c.44,0,.78.34.78.76s-.34.76-.78.76-.78-.34-.78-.76.34-.76.78-.76Z"/><path d="M21.7,9.22c.33.64.79.88,1.18.88.42,0,.76-.02.76-.54,0-.44-.24-.64-1.04-1.08-.63-.34-1.17-.74-1.17-1.51,0-.85.87-1.33,1.86-1.33.53,0,1.17.12,1.46.29l.02.03-.21.99h-.3c-.14-.3-.46-.81-1-.81-.43,0-.54.23-.54.54,0,.35.3.54.66.74.78.42,1.56.73,1.56,1.72,0,.76-.6,1.45-2.04,1.45-.4,0-1.12-.08-1.72-.3l.18-1.06h.33Z"/><path d="M26.31,9.22c.33.64.79.88,1.18.88.42,0,.76-.02.76-.54,0-.44-.24-.64-1.04-1.08-.63-.34-1.17-.74-1.17-1.51,0-.85.87-1.33,1.86-1.33.53,0,1.17.12,1.46.29l.02.03-.21.99h-.3c-.14-.3-.46-.81-1-.81-.43,0-.54.23-.54.54,0,.35.3.54.66.74.78.42,1.56.73,1.56,1.72,0,.76-.6,1.45-2.04,1.45-.4,0-1.12-.08-1.72-.3l.18-1.06h.33Z"/><path d="M33.13,5.64c1.86,0,2.64,1.09,2.64,2.48,0,1.52-.98,2.46-2.66,2.46s-2.66-.9-2.66-2.37c0-1.71,1.11-2.57,2.68-2.57ZM32.01,7.96c0,.85.11,2.07,1.25,2.07.5,0,.95-.35.95-1.62,0-1.53-.22-2.22-1.15-2.22s-1.05.81-1.05,1.77Z"/><path d="M41.98,10.47l-.02.03s-.48-.03-.86-.03-.74.03-.74.03l-.02-.03c.07-.58.07-1.16.07-1.98v-.98c0-.8-.27-1.02-.57-1.02-.4,0-.86.33-1.28.88v1.12c0,.84.01,1.35.07,1.98l-.03.03s-.3-.03-.68-.03-.9.03-.9.03l-.02-.03c.09-.59.12-1.16.12-1.98v-.6c0-.82-.04-1.66-.12-2.13l.02-.03c.38.02,1.1.02,1.42-.03.07,0,.09.03.1.11.02.09.03.55.03.8l.05.03c.51-.65,1.17-.99,1.73-.99.99,0,1.53.47,1.53,1.63v1.22c0,.84.02,1.35.12,1.98Z"/><path d="M43.82,3.38l.02-.03s.4.03.66.03c.2,0,.54-.03.54-.03,1.23,1.62,2.83,3.48,4.2,4.93h.03s0-2.69,0-2.69c-.02-.83-.06-1.57-.14-2.2l.02-.03s.28.03.55.03c.25,0,.54-.03.54-.03l.02.03c-.09.58-.11,1.38-.11,2.2l-.07,4.93c-.18-.02-.35-.03-.53-.03s-.43.02-.62.03c-1.27-1.63-2.75-3.38-4.19-5.04h-.07l-.04,2.81c-.01.86-.02,1.57.07,2.2l-.02.03s-.22-.03-.48-.03c-.25,0-.5.03-.5.03v-.03c.08-.58.13-1.34.17-2.2l.06-2.7c.02-.83-.02-1.57-.11-2.2Z"/><path d="M56.16,9.64c-.6.69-1.39.95-2.18.95s-1.47-.18-1.85-.57c-.45-.47-.69-1.16-.69-1.8,0-.91.36-1.57.9-2.01.44-.36,1.09-.55,1.7-.55,1.69,0,2.08,1.1,2.08,2.48l-.07.07s-.94-.02-2.04-.02h-1.09c0,.51.12.89.37,1.16.26.29.66.43,1.2.43.46,0,1-.04,1.51-.45.11,0,.18.2.18.34ZM54.67,7.67c0-.96-.27-1.47-.72-1.47-.31,0-.53.14-.67.33-.16.22-.3.6-.34,1.14h1.72Z"/><path d="M57.67,4.64l.02-.03c.44-.1,1.03-.39,1.31-.5.07,0,.1.03.1.11-.05.58-.06.91-.06,1.53h.52c.25,0,.57-.02.77-.03l.05.09c-.07.16-.12.35-.13.52-.15-.01-.53-.02-.79-.02h-.42l-.02,1.18c-.01.66-.01,1.22-.01,1.55,0,.45.11.88.41.88s.4-.01.64-.13c.12.08.19.24.19.42-.47.29-1.04.39-1.62.39-.7,0-1.07-.56-1.07-1.08,0-.33.02-1.24.03-1.9l.03-1.3c-.25,0-.59,0-.78.02l-.06-.08c.11-.17.18-.34.24-.53.14.02.37.03.59.03,0-.44,0-.82.04-1.11Z"/><path d="M67.01,3.34c2.05,0,2.6.97,2.6,1.71,0,.6-.57,1.19-1.13,1.46.96.27,1.78.88,1.78,1.94,0,.95-.81,2.06-3,2.06-.98,0-1.23-.03-2.02-.03-.39,0-.94.03-.94.03v-.03c.08-.59.12-1.38.12-2.2v-2.7c0-.83-.04-1.57-.13-2.2l.02-.03s.55.03.92.03c.69,0,1.4-.03,1.78-.03ZM65.98,6.35h.86c.91,0,1.13-.36,1.13-1.17,0-.96-.37-1.25-.99-1.25-.89,0-1,.13-1,.5v1.93ZM65.98,9.41c0,.36.19.52.96.52,1.47,0,1.55-.51,1.55-1.27s-.2-1.73-1.48-1.73h-1.02v2.48Z"/><path d="M71.65,5.26c0-.84-.05-1.6-.13-2.07l.02-.03c.45-.03,1.3-.25,1.57-.36.07,0,.12.03.12.11-.08.67-.13,1.24-.13,2.07v3.3c0,.83.04,1.57.13,2.2l-.02.03s-.46-.03-.84-.03-.85.03-.85.03v-.03c.08-.59.12-1.38.12-2.2v-3.01Z"/><path d="M77.19,5.64c1.86,0,2.64,1.09,2.64,2.48,0,1.52-.98,2.46-2.66,2.46s-2.66-.9-2.66-2.37c0-1.71,1.11-2.57,2.68-2.57ZM76.07,7.96c0,.85.11,2.07,1.25,2.07.5,0,.95-.35.95-1.62,0-1.53-.22-2.22-1.15-2.22s-1.05.81-1.05,1.77Z"/><path d="M82.65,6.72c-.19.3-.27.72-.27,1.24,0,.63.13,1.16.33,1.47.2.32.64.59.96.59.44,0,.98-.15,1.29-.53l.18.06c0,.18.03.32.05.43-.5.42-.97.59-1.81.59s-1.57-.27-1.96-.7c-.37-.4-.59-.94-.59-1.63,0-1.73,1.23-2.61,2.71-2.61.55,0,1.3.19,1.64.36l.02.03-.26,1.07h-.31c-.24-.59-.57-.91-.99-.91-.39,0-.76.19-.97.53Z"/><path d="M86.49,5.26c0-.84-.05-1.6-.13-2.07l.02-.03c.45-.03,1.3-.25,1.57-.36.07,0,.12.03.12.11-.08.67-.13,1.24-.13,2.07v2.75c.15-.02.38-.07.5-.16.44-.34,1.02-1.1,1.45-1.82.3,0,1.52,0,1.73-.03l.02.03c-.89.67-1.82,1.5-2.22,1.95,1.04,1.27,1.63,1.91,2.45,2.77l-.02.03c-.1-.02-.96-.03-1.14-.03s-.71.01-.88.03c-.58-1.06-.91-1.54-1.6-2.3-.07-.06-.19-.09-.29-.09v.16c0,.83.04,1.57.13,2.2l-.02.03s-.46-.03-.84-.03-.85.03-.85.03v-.03c.08-.59.12-1.38.12-2.2v-3.01Z"/></g></g><g id="cw"><g id="cx" class="gl"><path d="M185.03,108.56l-3.9,6.32h-.19s-1.89-7.27-1.89-7.27l5.97.95ZM184.07,109.3l-3.7-.59,1.15,4.73,2.54-4.14Z"/><path d="M186.61,115.31c.19-.14.26-.38.27-.61.04-.73-1.06-1.13-1.15-2-.14-1.36,1.84-1.85,2.52-.76.43.7-.45.97-.64.37-.07-.23.03-.42-.22-.56-.64-.35-1.22.45-.86,1.01s1.2.93,1.16,1.82c-.06,1.38-2.09,1.55-2.81.68-.38-.46-.04-1.02.43-.72.32.2.12.68.36.81s.73.12.95-.04Z"/></g><g class="gl"><line class="dq" x1="57.22" y1="127.04" x2="57.22" y2="110.3"/><polygon points="60.96 111.4 57.22 104.92 53.48 111.4 60.96 111.4"/></g></g><g id="cy"><line class="do" x1="479.51" y1="110.32" x2="488.51" y2="114.32"/><line class="do" x1="479.51" y1="102.33" x2="488.51" y2="106.33"/><line class="do" x1="488.51" y1="106.33" x2="497.51" y2="110.32"/><line class="do" x1="488.51" y1="98.34" x2="497.51" y2="102.33"/><line class="do" x1="479.51" y1="110.32" x2="488.51" y2="106.33"/><line class="do" x1="479.51" y1="102.33" x2="488.51" y2="98.34"/><line class="do" x1="479.51" y1="110.32" x2="488.51" y2="98.34"/><line class="do" x1="488.51" y1="114.32" x2="497.51" y2="102.33"/><line class="do" x1="479.51" y1="102.33" x2="488.51" y2="114.32"/><line class="do" x1="488.51" y1="98.34" x2="497.51" y2="110.32"/><line class="do" x1="497.51" y1="102.33" x2="488.51" y2="106.33"/><line class="do" x1="488.51" y1="114.32" x2="497.51" y2="110.32"/><circle class="dt" cx="479.51" cy="110.32" r="2.81"/><circle class="dt" cx="479.51" cy="102.33" r="2.81"/><circle class="dt" cx="488.51" cy="114.32" r="2.81"/><circle class="dt" cx="488.51" cy="106.33" r="2.81"/><circle class="dt" cx="488.51" cy="98.34" r="2.81"/><circle class="dt" cx="497.51" cy="110.32" r="2.81"/><circle class="dt" cx="497.51" cy="102.33" r="2.81"/><path d="M474.69,93.01c.19.26.47.49.8.49.36,0,.62-.2.62-.56,0-.33-.29-.44-.68-.55-.41-.11-.81-.29-.81-.83s.52-.82,1.02-.82c.34,0,.71.1.91.2v.02s-.12.5-.12.5h-.09c-.16-.18-.37-.45-.72-.45-.29,0-.51.15-.51.42,0,.34.37.46.63.53.48.11.92.33.92.88,0,.37-.22.92-1.15.92-.26,0-.63-.05-1.02-.18l.11-.57h.1Z"/><path d="M477.77,92.19c0,.79.38,1.23.88,1.23.25,0,.47-.05.72-.28h.03l.13.14c-.27.34-.59.48-.99.48-.82,0-1.36-.6-1.36-1.54s.74-1.49,1.44-1.49c.34,0,.69.08.9.19v.02s-.14.55-.14.55h-.09c-.18-.3-.42-.49-.67-.49-.45,0-.84.44-.84,1.19Z"/><path d="M481.88,93.38c-.36.3-.55.39-.92.39-.5,0-.84-.23-.84-.73,0-.46.43-.82,1.12-.98l.63-.14s.05-.03.05-.08c0-.76-.41-.8-.65-.8-.32,0-.55.27-.74.57h-.09s-.11-.46-.11-.46l.02-.03c.17-.14.48-.39.99-.39s1.11.18,1.11,1.09c0,.07-.02.82-.02,1.02,0,.3.04.46.11.53.04.04.13.05.2.05.05,0,.11,0,.18-.04l.05.17c-.16.17-.37.21-.54.21-.25,0-.45-.13-.53-.39h-.03ZM481.33,92.34c-.53.14-.67.37-.67.67,0,.21.2.41.5.41.2,0,.43-.12.62-.26.05-.04.09-.09.09-.18l.03-.8-.57.16Z"/><path d="M483.67,90.45c0-.51,0-1.01-.06-1.3v-.02c.29-.02.43-.07.6-.13.04,0,.06.02.06.07-.03.43-.06.76-.06,1.27v2.02c0,.51,0,.96.06,1.35v.02c-.09-.01-.25-.02-.33-.02s-.24,0-.32.02v-.02c.04-.36.05-.85.05-1.35v-1.9Z"/><path d="M486.83,93.38c-.36.3-.55.39-.92.39-.5,0-.84-.23-.84-.73,0-.46.43-.82,1.12-.98l.63-.14s.05-.03.05-.08c0-.76-.41-.8-.65-.8-.32,0-.55.27-.74.57h-.09s-.11-.46-.11-.46l.02-.03c.17-.14.48-.39.99-.39s1.11.18,1.11,1.09c0,.07-.02.82-.02,1.02,0,.3.04.46.11.53.04.04.13.05.2.05.05,0,.11,0,.18-.04l.05.17c-.16.17-.37.21-.54.21-.25,0-.45-.13-.53-.39h-.03ZM486.28,92.34c-.53.14-.67.37-.67.67,0,.21.2.41.5.41.2,0,.43-.12.62-.26.05-.04.09-.09.09-.18l.03-.8-.57.16Z"/><path d="M489.16,91.46c.3-.51.49-.72.86-.72.12,0,.13.01.24.05l.03.03-.13.5h-.05c-.09-.07-.22-.08-.35-.08s-.28.09-.38.24c-.14.22-.23.38-.23.67v.35c0,.51.01.83.06,1.21v.02c-.09-.01-.25-.02-.33-.02s-.24,0-.32.02v-.02c.04-.36.05-.71.05-1.21v-.37c0-.51-.01-1.02-.06-1.31v-.02c.17.02.41.01.56-.02.03,0,.04.02.04.07v.61h.02Z"/><path d="M493.21,91.34c.32-.34.71-.61,1.13-.61.38,0,.65.21.71.53.38-.4.78-.53,1.14-.53.73,0,.84.47.84,1.07v.67c0,.51,0,.83.06,1.21v.02c-.09-.01-.25-.02-.33-.02s-.24,0-.32.02v-.02c.04-.36.05-.71.05-1.21v-.74c0-.45-.18-.6-.54-.6-.26,0-.53.05-.86.4,0,.08,0,.16,0,.26v.68c0,.51,0,.83.06,1.21v.02c-.09-.01-.25-.02-.33-.02s-.24,0-.32.02v-.02c.04-.36.05-.71.05-1.21v-.74c0-.45-.19-.6-.45-.6-.24,0-.61.2-.93.53v.82c0,.51,0,.83.06,1.21v.02c-.09-.01-.25-.02-.33-.02s-.24,0-.32.02v-.02c.04-.36.05-.71.05-1.21v-.37c0-.51-.01-1.02-.06-1.31v-.02c.17.02.41.01.56-.02.03,0,.04.02.04.07v.49l.02.02Z"/><path d="M498.15,90.45c0-.51,0-1.01-.06-1.3v-.02c.29-.02.43-.07.6-.13.04,0,.06.02.06.07-.03.43-.06.76-.06,1.27v2.02c0,.51,0,.96.06,1.35v.02c-.09-.01-.25-.02-.33-.02s-.24,0-.32.02v-.02c.04-.36.05-.85.05-1.35v-1.9Z"/><path d="M500.35,91.34c.31-.47.65-.61.91-.61.75,0,1.17.69,1.17,1.4,0,.95-.54,1.63-1.43,1.63-.24,0-.49-.05-.67-.15v.3c0,.51.01.96.06,1.35v.02c-.09-.01-.25-.02-.33-.02s-.24,0-.32.02v-.02c.04-.36.05-.85.05-1.35v-1.8c0-.51-.01-1.02-.06-1.31v-.02c.17.02.41.01.56-.02.03,0,.04.02.04.07v.51ZM500.34,93.19c.24.28.52.3.63.3.72,0,.88-.72.88-1.27,0-.76-.24-1.18-.69-1.18-.26,0-.66.31-.81.67v1.48Z"/><path class="do" d="M467.52,115.07s2.05,1.41,4.15.7c1.21-.42,2.15-.8,2.85-1.13"/><polygon points="474.93 116.3 476.59 113.37 473.23 113.39 474.93 116.3"/><g class="gl"><path d="M148.28,108.54c-.18.09-.43.26-.46.43-.03.18.15.32.44.43.54.22,1.16.43,1.44.7.25.23.25.58.22.77-.07.41-.35.65-.66.76-.48.17-1.39.07-1.79,0-.61-.1-1.17-.44-1.1-.89.05-.34.19-.57.44-.78.17-.14.39-.23.62-.32-.13-.11-.2-.33-.16-.54.06-.37.44-.62.81-.74-.17-.21-.27-.55-.21-.9.12-.77.87-1.12,1.58-1,.24.04.51.15.65.17.28.04.53-.03.57-.3.01-.07,0-.14-.05-.22v-.03c.16-.01.31-.05.42-.12h.03c.07.17.08.32.05.49-.05.29-.3.5-.65.44-.06-.01-.14-.02-.16-.04h-.03c.16.23.28.57.23.88-.14.86-.9,1.2-1.61,1.09-.23-.04-.54-.16-.63-.29ZM147.32,110.03c-.17.15-.29.35-.33.59-.07.43.48.67.72.71.37.06,1.05.14,1.41,0,.14-.06.22-.15.25-.32.02-.13,0-.37-.18-.53-.27-.25-.78-.46-1.31-.64-.05-.02-.1-.02-.15-.03-.16.08-.31.14-.41.24ZM149.35,106.78c-.47-.08-.78.32-.85.77-.07.43.08.91.54.98.33.05.76-.21.86-.84.08-.48-.12-.85-.55-.91Z"/><path d="M152.49,107.65c.32-.26.87-.55,1.24-.49.14.02.18.05.3.11l.02.04-.38.58h-.07c-.1-.12-.27-.15-.42-.17-.12-.02-.34-.01-.55.1-.14.08-.26.22-.34.37l-.31.81c-.22.58-.35.94-.46,1.38l-.03.02s-.12-.04-.37-.08-.39-.04-.39-.04v-.03c.21-.4.38-.79.6-1.36l.16-.42c.22-.57.33-1.02.33-1.39l.02-.02c.25.01.47-.01.67-.06.05,0,.07.01.05.09,0,0-.02.25-.11.58h0s.02,0,.02,0Z"/><path d="M156.17,110.5c-.03.17.05.27.19.29.08.01.24.02.39,0v.03s-.02.21-.02.21c-.18.06-.47.17-.79.12-.24-.04-.47-.19-.42-.5.01-.07.03-.17.11-.36l.17-.39v-.02c-.6.63-1.05,1.08-1.61.99-.66-.11-.72-.69-.65-1.13.2-1.24,1.72-2.31,2.48-2.19.32.05.42.07.63.12.14.04.47.05.6.07l-.94,2.26c-.08.21-.12.37-.14.5ZM156.47,108.03c-.15-.09-.28-.13-.48-.16-.72-.12-1.65,1-1.78,1.84-.07.44,0,.69.26.73.25.04,1.01-.5,1.51-1.14.28-.47.49-1.27.49-1.27Z"/><path d="M158.34,111.53c-.63-.1-1.03-.69-.91-1.44.13-.79.62-1.34,1.15-1.65.42-.25.91-.36,1.4-.28.16.03.46.15.6.27l.19-.5c.22-.58.43-1.16.5-1.49l.02-.02c.33.03.5,0,.73-.04.05,0,.06.03.04.09-.23.46-.39.86-.61,1.43l-.9,2.35c-.24.63-.36,1.03-.4,1.29-.01.08-.02.14-.02.2l-.02.02c-.1-.03-.24-.06-.34-.08-.11-.02-.15-.01-.27-.02-.03,0-.05-.02-.05-.03,0,0,.06-.3.12-.5h-.02c-.42.31-.83.46-1.2.4ZM160.34,109.05c-.08-.32-.2-.53-.58-.58-.24-.04-.59-.01-.92.3-.25.24-.61.84-.7,1.42-.1.6.16.9.56.97.25.04.57-.11,1-.42l.64-1.68Z"/><path d="M162.46,108.73l.02-.02c.32.03.53,0,.75-.04.05,0,.06.03.04.09-.24.46-.37.78-.59,1.35l-.21.54c-.22.58-.34.94-.45,1.39l-.02.02s-.1-.04-.37-.08c-.28-.04-.4-.04-.4-.04v-.02c.22-.4.39-.79.61-1.36l.16-.42c.22-.57.39-1.06.45-1.39ZM163.42,106.99c.21.03.37.25.34.47-.03.21-.25.37-.47.34-.21-.03-.37-.25-.34-.47.03-.21.25-.37.47-.34Z"/><path d="M164.2,111.04c-.11.7.15,1.06.5,1.12.38.06.98-.22,1.27-.58h.05c0,.12-.02.34.01.43-.38.39-1.02.58-1.68.48-.67-.11-.98-.73-.88-1.38.16-1,1.08-2.23,2.47-2,.58.09.76.39.71.73-.05.3-.32,1.12-2.37.88-.02.06-.06.25-.07.33ZM165.72,109.36c-.37-.06-.91.07-1.36,1.09.93.11,1.59-.05,1.7-.71.03-.21-.07-.33-.34-.37Z"/><path d="M169.55,113.23l-.02.02s-.14-.05-.38-.08c-.24-.04-.39-.04-.39-.04v-.02c.23-.4.38-.79.6-1.36l.29-.75c.24-.62.15-.79-.21-.85-.25-.04-.73.06-1.27.46l-.34.89c-.22.58-.35.94-.46,1.38l-.03.02s-.12-.04-.37-.08-.39-.04-.39-.04v-.03c.21-.4.38-.79.6-1.36l.16-.42c.22-.57.34-1.02.34-1.39l.02-.02c.25.02.47-.01.67-.06.05,0,.07.01.05.09,0,0-.02.26-.11.59v.03c.68-.5,1.25-.53,1.51-.49.64.1.8.57.5,1.36-.1.24-.22.52-.32.77-.22.58-.35.94-.45,1.38Z"/><path d="M172.36,109.2l.02-.02c.33.03.41-.03.64-.08.05,0,.06.03.04.09-.21.44-.23.48-.45,1.05l.85.14s.06.02.04.05l-.07.19c-.03.07-.15.08-.23.07l-.73-.12-.42,1.09c-.17.46-.31.76-.4.99-.12.31-.11.52.07.55.13.02.33.06.59-.03l.02.23c-.32.17-.75.22-1.08.17-.36-.06-.45-.41-.33-.77.08-.23.29-.7.46-1.16l.46-1.17-.5-.08s-.03-.01-.02-.04l.1-.27s.02-.03.04-.03l.51.08c.17-.44.23-.65.36-.95Z"/><path d="M173.16,113.02c.05.36.41.61.72.66.34.05.72-.07.79-.51.04-.27-.16-.54-.41-.76-.22-.19-.44-.4-.52-.66-.03-.08-.03-.19-.02-.31.13-.81.93-.95,1.52-.86.38.06.63.24.8.39v.03s-.3.49-.3.49h-.1c-.02-.24-.18-.55-.57-.61-.32-.05-.64.05-.69.39-.06.39.17.63.49.87.43.31.51.67.46.96-.1.63-.7,1.02-1.55.89-.28-.04-.68-.17-1.05-.39l.32-.59h.11Z"/></g><g class="gl"><line class="du" x1="488.35" y1="119.26" x2="488.35" y2="122.65"/><polygon points="486.95 122.24 488.35 124.67 489.76 122.24 486.95 122.24"/></g><g class="gl"><line class="dq" x1="499.33" y1="131.86" x2="484.31" y2="131.86"/><polygon points="498.24 128.12 504.71 131.86 498.24 135.6 498.24 128.12"/></g><line class="dv" x1="57.22" y1="131.86" x2="9.72" y2="131.86"/><line class="di" x1="356.98" y1="131.86" x2="57.22" y2="131.86"/><rect class="eb" x="48.34" y="121.46" width="17.76" height="18.8"/><line class="di" x1="478.32" y1="131.86" x2="388.53" y2="131.86"/><g id="cz"><path d="M57.66,134.07c.22-.22.26-.53.23-.82-.1-.94-1.57-1.22-1.86-2.31-.45-1.7,1.96-2.72,3.04-1.47.69.8-.37,1.32-.74.6-.14-.27-.04-.55-.4-.67-.89-.31-1.46.82-.89,1.46s1.71.94,1.84,2.08c.21,1.77-2.35,2.39-3.43,1.43-.57-.5-.26-1.28.4-1,.45.19.29.84.62.95s.95,0,1.2-.25Z"/></g><g class="gl"><path d="M11.45,136.08l.02-.02c.27-.02.44-.07.62-.14.04,0,.06.02.05.07-.14.41-.21.69-.32,1.2l-.1.48c-.11.51-.16.83-.19,1.21l-.02.02s-.09-.02-.32-.02-.33.02-.33.02v-.02c.13-.36.22-.71.32-1.21l.08-.37c.11-.51.18-.93.19-1.22ZM12.02,134.49c.18,0,.34.16.34.34s-.16.34-.34.34-.34-.16-.34-.34.16-.34.34-.34Z"/><path d="M15.08,138.89v.02s-.14-.02-.34-.02-.33.02-.33.02v-.02c.13-.36.21-.71.32-1.21l.14-.66c.12-.55.02-.68-.29-.68-.22,0-.6.15-1,.55l-.17.79c-.11.51-.17.83-.2,1.21l-.02.02s-.11-.02-.32-.02-.33.02-.33.02v-.02c.12-.36.21-.71.32-1.21l.07-.37c.11-.51.15-.89.09-1.2v-.02c.22-.02.4-.07.57-.14.04,0,.06,0,.05.07,0,0,.02.22-.01.51v.02c.51-.51.97-.61,1.2-.61.55,0,.74.36.59,1.07-.05.22-.12.47-.16.68-.11.51-.17.83-.2,1.21Z"/><path d="M16.45,136.41c0-.11,0-.22-.02-.31v-.02c.22-.02.4-.07.57-.14.04,0,.06,0,.05.07,0,0,0,.06,0,.15,0,.08,0,.19-.01.31h.03c.41-.48.73-.54.95-.54.56,0,.94.49.94,1.08,0,.68-.38,1.25-.78,1.57-.3.24-.66.38-1.05.38-.24,0-.41-.05-.57-.15l-.06.3c-.11.51-.2.96-.22,1.35l-.02.02s-.09-.02-.32-.02-.34.02-.34.02v-.02c.13-.36.25-.85.35-1.35l.38-1.8c.07-.35.11-.64.11-.89ZM16.66,138.37c.18.28.39.29.5.29.44,0,.71-.23.89-.53.17-.29.29-.68.29-1.08,0-.49-.22-.76-.55-.76-.23,0-.58.22-.81.57l-.32,1.51Z"/><path d="M20.28,138.95c-.63,0-.71-.47-.61-.92l.18-.83c.11-.51.17-.83.19-1.21l.02-.02s.09.02.32.02.33-.02.33-.02v.02c-.13.36-.22.71-.32,1.21l-.14.67c-.13.6,0,.71.33.71.3,0,.64-.29.86-.5l.19-.88c.11-.51.17-.83.19-1.21l.02-.02s.09.02.32.02.33-.02.33-.02v.02c-.13.36-.22.71-.32,1.21l-.08.38c-.11.51-.15,1-.16,1.29l-.02.02c-.08-.01-.21-.02-.3-.02-.1,0-.14,0-.24.02-.04,0-.06,0-.06-.02l.06-.43h-.01c-.46.4-.79.5-1.07.5Z"/><path d="M23.77,135.16l.02-.02c.28-.02.34-.08.52-.15.04,0,.06.02.05.07-.11.39-.13.43-.23.94h.73s.05.01.04.04l-.04.17c-.01.06-.11.09-.18.09h-.62l-.21.96c-.08.4-.16.67-.2.88-.06.28-.02.45.13.45.11,0,.29,0,.49-.1l.04.19c-.24.18-.59.28-.87.28-.31,0-.43-.28-.37-.6.04-.2.14-.62.23-1.03l.23-1.04h-.43s-.03,0-.02-.03l.05-.24s.01-.03.03-.03h.44c.08-.39.11-.57.17-.84Z"/><path d="M26.63,138.23c.09.29.42.45.69.45.29,0,.59-.16.59-.53,0-.23-.2-.43-.44-.58-.21-.13-.43-.28-.52-.48-.03-.07-.05-.16-.05-.26,0-.69.65-.91,1.15-.91.32,0,.56.11.72.22v.02s-.18.45-.18.45h-.09c-.05-.18-.22-.42-.55-.42-.28,0-.52.13-.52.42,0,.34.22.51.52.66.4.2.51.49.51.73,0,.54-.45.94-1.18.94-.24,0-.59-.05-.93-.18l.19-.53h.1Z"/><path d="M30.03,136.65c-.17.26-.33.72-.33,1.17,0,.52.25.8.61.8.22,0,.44-.05.71-.28h.02l.09.14c-.32.34-.63.48-.99.48-.62,0-1.04-.42-1.04-1.11,0-.6.25-1.06.55-1.38.33-.34.75-.54,1.11-.54.3,0,.6.08.76.19v.02s-.25.55-.25.55h-.07c-.09-.3-.27-.49-.51-.49s-.48.16-.67.45Z"/><path d="M33.95,138.39c0,.15.08.22.2.22.07,0,.2-.01.32-.05v.02s.01.18.01.18c-.14.07-.37.2-.64.2-.2,0-.42-.09-.42-.36,0-.06,0-.14.05-.32l.09-.35h-.01c-.4.59-.72,1.02-1.2,1.02-.57,0-.69-.48-.69-.86,0-1.06,1.13-2.15,1.77-2.15.27,0,.36,0,.54.02.12.02.4-.02.51-.02l-.48,2.01c-.04.18-.05.32-.05.43ZM33.86,136.29c-.14-.05-.25-.07-.42-.07-.61,0-1.24,1.05-1.24,1.77,0,.38.09.57.32.57.22,0,.78-.55,1.11-1.15.17-.43.24-1.12.24-1.12Z"/><path d="M36.21,138.55v.02s.01.18.01.18c-.14.09-.48.2-.75.2s-.42-.18-.42-.48c0-.11.08-.47.13-.72l.44-2.12c.11-.51.21-1.02.21-1.31l.02-.02c.28-.02.42-.06.6-.13.04,0,.05.02.05.07-.13.41-.21.76-.32,1.27l-.49,2.31c-.04.18-.08.34-.08.51,0,.36.25.28.58.22Z"/><path d="M38.91,138.39c0,.15.08.22.2.22.07,0,.2-.01.32-.05v.02s.01.18.01.18c-.14.07-.37.2-.64.2-.2,0-.42-.09-.42-.36,0-.06,0-.14.05-.32l.09-.35h-.01c-.4.59-.72,1.02-1.2,1.02-.57,0-.69-.48-.69-.86,0-1.06,1.13-2.15,1.77-2.15.27,0,.36,0,.54.02.12.02.4-.02.51-.02l-.48,2.01c-.04.18-.05.32-.05.43ZM38.83,136.29c-.13-.05-.25-.07-.42-.07-.61,0-1.24,1.05-1.24,1.77,0,.38.09.57.32.57.22,0,.78-.55,1.11-1.15.17-.43.24-1.12.24-1.12Z"/><path d="M41,136.5c.23-.26.65-.57.97-.57.12,0,.16.01.27.05l.02.03-.24.53h-.06c-.1-.08-.24-.08-.37-.08-.1,0-.28.03-.44.15-.11.09-.19.22-.23.35l-.15.71c-.11.51-.17.83-.2,1.21l-.02.02s-.11-.02-.32-.02-.33.02-.33.02v-.02c.12-.36.21-.71.32-1.21l.07-.37c.11-.51.14-.89.09-1.2v-.02c.22-.02.41-.07.57-.14.04,0,.06,0,.05.07,0,0,.02.21-.01.5h0s.01,0,.01,0Z"/><path d="M42.27,138.23c.09.29.42.45.69.45.29,0,.59-.16.59-.53,0-.23-.2-.43-.44-.58-.21-.13-.43-.28-.52-.48-.03-.07-.05-.16-.05-.26,0-.69.65-.91,1.15-.91.32,0,.56.11.72.22v.02s-.18.45-.18.45h-.09c-.05-.18-.22-.42-.55-.42-.28,0-.52.13-.52.42,0,.34.22.51.52.66.4.2.51.49.51.73,0,.54-.45.94-1.18.94-.24,0-.59-.05-.93-.18l.19-.53h.1Z"/></g><rect class="eb" x="481.51" y="124.56" width="13.68" height="13.11"/><g id="da" class="gl"><path d="M487.58,129.05c.62-.08,1.66.14,1.85.84.17.62-.54.83-.87.38-.21-.28-.08-.64-.47-.78-.89-.33-1.55.86-.74,1.59.59.53,1.39.85,1.63,1.7.56,1.96-2.3,2.68-3.39,1.66-.76-.71.24-1.5.71-.71.22.38-.04.7.65.73.85.04,1.39-.66,1.01-1.45-.35-.72-1.35-.93-1.69-1.78-.39-.99.29-2.04,1.31-2.18Z"/><path d="M490.74,128.84c-.24.2-.44.09-.37-.22.39-1.02.65-2.11,1.07-3.11.17-.4.34-.73.85-.56s.49.55.32.97c-.23.56-1.28,2.15-1.68,2.68-.04.05-.15.2-.19.24Z"/></g><g class="gl"><path d="M439.86,135.71c.83,0,1.12.54,1.12,1.11,0,.61-.32,1.26-.82,1.63-.27.19-.59.29-.96.29-.76,0-1.14-.51-1.14-1.12,0-.55.22-.98.48-1.29.31-.36.77-.63,1.31-.63ZM438.74,137.13c-.03.14-.05.3-.05.46,0,.44.12.87.63.87.19,0,.45-.08.66-.35.21-.26.39-.63.39-1.35,0-.5-.19-.78-.61-.78-.51,0-.9.56-1.03,1.15Z"/><path d="M442.23,138.74c-.63,0-.71-.47-.61-.92l.18-.83c.11-.51.17-.83.19-1.21l.02-.02s.09.02.32.02.33-.02.33-.02v.02c-.13.36-.22.71-.32,1.21l-.14.67c-.13.6,0,.71.33.71.3,0,.64-.29.86-.5l.19-.88c.11-.51.17-.83.19-1.21l.02-.02s.09.02.32.02.33-.02.33-.02v.02c-.13.36-.22.71-.32,1.21l-.08.38c-.11.51-.15,1-.16,1.29l-.02.02c-.08-.01-.21-.02-.3-.02-.1,0-.14,0-.24.02-.04,0-.06,0-.06-.02l.06-.43h-.01c-.46.4-.79.5-1.07.5Z"/><path d="M445.72,134.94l.02-.02c.28-.02.34-.08.52-.15.04,0,.06.02.05.07-.11.39-.13.43-.23.94h.73s.05.01.04.04l-.04.17c-.01.06-.11.09-.18.09h-.62l-.21.96c-.08.4-.16.67-.2.88-.06.28-.02.45.13.45.11,0,.29,0,.49-.1l.04.19c-.24.18-.59.28-.87.28-.31,0-.43-.28-.37-.6.04-.2.14-.62.23-1.03l.23-1.04h-.43s-.03,0-.02-.03l.05-.24s.01-.03.03-.03h.44c.08-.39.11-.57.17-.84Z"/><path d="M447.33,136.2c0-.11,0-.22-.02-.31v-.02c.22-.02.4-.07.57-.14.04,0,.06,0,.05.07,0,0,0,.06,0,.15,0,.08,0,.19-.01.31h.03c.41-.48.73-.54.95-.54.56,0,.94.49.94,1.08,0,.68-.38,1.25-.78,1.57-.3.24-.66.38-1.05.38-.24,0-.41-.05-.57-.15l-.06.3c-.11.51-.2.96-.22,1.35l-.02.02s-.09-.02-.32-.02-.34.02-.34.02v-.02c.13-.36.25-.85.35-1.35l.38-1.8c.07-.35.11-.64.11-.89ZM447.54,138.15c.18.28.39.29.5.29.44,0,.71-.23.89-.53.17-.29.29-.68.29-1.08,0-.49-.22-.76-.55-.76-.23,0-.58.22-.81.57l-.32,1.51Z"/><path d="M451.16,138.74c-.63,0-.71-.47-.61-.92l.18-.83c.11-.51.17-.83.19-1.21l.02-.02s.09.02.32.02.33-.02.33-.02v.02c-.13.36-.22.71-.32,1.21l-.14.67c-.13.6,0,.71.33.71.3,0,.64-.29.86-.5l.19-.88c.11-.51.17-.83.19-1.21l.02-.02s.09.02.32.02.33-.02.33-.02v.02c-.13.36-.22.71-.32,1.21l-.08.38c-.11.51-.15,1-.16,1.29l-.02.02c-.08-.01-.21-.02-.3-.02-.1,0-.14,0-.24.02-.04,0-.06,0-.06-.02l.06-.43h-.01c-.46.4-.79.5-1.07.5Z"/><path d="M454.65,134.94l.02-.02c.28-.02.34-.08.52-.15.04,0,.06.02.05.07-.11.39-.13.43-.23.94h.73s.05.01.04.04l-.04.17c-.01.06-.11.09-.18.09h-.62l-.21.96c-.08.4-.16.67-.2.88-.06.28-.02.45.13.45.11,0,.29,0,.49-.1l.04.19c-.24.18-.59.28-.87.28-.31,0-.43-.28-.37-.6.04-.2.14-.62.23-1.03l.23-1.04h-.43s-.03,0-.02-.03l.05-.24s.01-.03.03-.03h.44c.08-.39.11-.57.17-.84Z"/><path d="M457.51,138.02c.09.29.42.45.69.45.29,0,.59-.16.59-.53,0-.23-.2-.43-.44-.58-.21-.13-.43-.28-.52-.48-.03-.07-.05-.16-.05-.26,0-.69.65-.91,1.15-.91.32,0,.56.11.72.22v.02s-.18.45-.18.45h-.09c-.05-.18-.22-.42-.55-.42-.28,0-.52.13-.52.42,0,.34.22.51.52.66.4.2.51.49.51.73,0,.54-.45.94-1.18.94-.24,0-.59-.05-.93-.18l.19-.53h.1Z"/><path d="M460.91,136.43c-.17.26-.33.72-.33,1.17,0,.52.25.8.61.8.22,0,.44-.05.71-.28h.02l.09.14c-.32.34-.63.48-.99.48-.62,0-1.04-.42-1.04-1.11,0-.6.25-1.06.55-1.38.33-.34.75-.54,1.11-.54.3,0,.6.08.76.19v.02s-.25.55-.25.55h-.07c-.09-.3-.27-.49-.51-.49s-.48.16-.67.45Z"/><path d="M464.83,138.17c0,.15.08.22.2.22.07,0,.2-.01.32-.05v.02s.01.18.01.18c-.14.07-.37.2-.64.2-.2,0-.42-.09-.42-.36,0-.06,0-.14.05-.32l.09-.35h-.01c-.4.59-.72,1.02-1.2,1.02-.57,0-.69-.48-.69-.86,0-1.06,1.13-2.15,1.77-2.15.27,0,.36,0,.54.02.12.02.4-.02.51-.02l-.48,2.01c-.04.18-.05.32-.05.43ZM464.74,136.08c-.14-.05-.25-.07-.42-.07-.61,0-1.24,1.05-1.24,1.77,0,.38.09.57.32.57.22,0,.78-.55,1.11-1.15.17-.43.24-1.12.24-1.12Z"/><path d="M467.09,138.34v.02s.01.18.01.18c-.14.09-.48.2-.75.2s-.42-.18-.42-.48c0-.11.08-.47.13-.72l.44-2.12c.11-.51.21-1.02.21-1.31l.02-.02c.28-.02.42-.06.6-.13.04,0,.05.02.05.07-.13.41-.21.76-.32,1.27l-.49,2.31c-.04.18-.08.34-.08.51,0,.36.25.28.58.22Z"/><path d="M469.79,138.17c0,.15.08.22.2.22.07,0,.2-.01.32-.05v.02s.01.18.01.18c-.14.07-.37.2-.64.2-.2,0-.42-.09-.42-.36,0-.06,0-.14.05-.32l.09-.35h-.01c-.4.59-.72,1.02-1.2,1.02-.57,0-.69-.48-.69-.86,0-1.06,1.13-2.15,1.77-2.15.27,0,.36,0,.54.02.12.02.4-.02.51-.02l-.48,2.01c-.04.18-.05.32-.05.43ZM469.71,136.08c-.14-.05-.25-.07-.42-.07-.61,0-1.24,1.05-1.24,1.77,0,.38.09.57.32.57.22,0,.78-.55,1.11-1.15.17-.43.24-1.12.24-1.12Z"/><path d="M471.88,136.28c.23-.26.65-.57.97-.57.12,0,.16.01.27.05l.02.03-.24.53h-.06c-.1-.08-.24-.08-.37-.08-.1,0-.28.03-.44.15-.11.09-.19.22-.23.35l-.15.71c-.11.51-.17.83-.2,1.21l-.02.02s-.11-.02-.32-.02-.33.02-.33.02v-.02c.12-.36.21-.71.32-1.21l.07-.37c.11-.51.14-.89.09-1.2v-.02c.22-.02.41-.07.57-.14.04,0,.06,0,.05.07,0,0,.02.21-.01.5h0s.01,0,.01,0Z"/><path d="M473.15,138.02c.09.29.42.45.69.45.29,0,.59-.16.59-.53,0-.23-.2-.43-.44-.58-.21-.13-.43-.28-.52-.48-.03-.07-.05-.16-.05-.26,0-.69.65-.91,1.15-.91.32,0,.56.11.72.22v.02s-.18.45-.18.45h-.09c-.05-.18-.22-.42-.55-.42-.28,0-.52.13-.52.42,0,.34.22.51.52.66.4.2.51.49.51.73,0,.54-.45.94-1.18.94-.24,0-.59-.05-.93-.18l.19-.53h.1Z"/></g><g class="gm"><path d="M363.22,131.25c.23-.26.65-.57.97-.57.12,0,.16.01.27.05l.02.03-.24.53h-.06c-.1-.08-.24-.08-.37-.08-.1,0-.28.03-.44.15-.11.09-.19.22-.23.35l-.15.71c-.11.51-.17.83-.2,1.21l-.02.02s-.11-.02-.32-.02-.33.02-.33.02v-.02c.12-.36.21-.71.32-1.21l.07-.37c.11-.51.14-.89.09-1.2v-.02c.22-.02.4-.07.57-.14.04,0,.06,0,.05.07,0,0,.02.21-.01.5h0s.01,0,.01,0Z"/><path d="M365.03,132.52c0,.6.26.86.56.86.32,0,.79-.31.98-.65h.04c.02.09.03.28.07.35-.27.37-.77.62-1.34.62s-.91-.48-.91-1.03c0-.85.6-2,1.79-2,.5,0,.68.23.68.52,0,.26-.12.97-1.86,1.04,0,.05-.02.22-.02.28ZM366.07,130.92c-.32,0-.75.18-.99,1.09.79-.03,1.32-.25,1.32-.82,0-.18-.1-.27-.33-.27Z"/><path d="M367.31,132.98c.09.29.42.45.69.45.29,0,.59-.16.59-.53,0-.23-.2-.43-.44-.58-.21-.13-.43-.28-.52-.48-.03-.07-.05-.16-.05-.26,0-.69.65-.91,1.15-.91.32,0,.56.11.72.22v.02s-.18.45-.18.45h-.09c-.05-.18-.22-.42-.55-.42-.28,0-.52.13-.52.42,0,.34.22.51.52.66.4.2.51.49.51.73,0,.54-.45.94-1.18.94-.24,0-.59-.05-.93-.18l.19-.53h.1Z"/><path d="M370.43,130.83l.02-.02c.27-.02.44-.07.62-.14.04,0,.06.02.05.07-.14.41-.21.69-.32,1.2l-.1.48c-.11.51-.16.83-.19,1.21l-.02.02s-.09-.02-.32-.02-.33.02-.33.02v-.02c.13-.36.22-.71.32-1.21l.08-.37c.11-.51.18-.93.19-1.22ZM371,129.24c.18,0,.34.16.34.34s-.16.34-.34.34-.34-.16-.34-.34.16-.34.34-.34Z"/><path d="M372.52,133.7c-.54,0-.95-.44-.95-1.08s.34-1.2.74-1.53c.32-.26.71-.42,1.13-.42.13,0,.4.06.54.15l.09-.44c.11-.51.21-1.02.21-1.31l.02-.02c.28-.02.42-.06.6-.13.04,0,.06.02.05.07-.13.42-.21.77-.32,1.27l-.44,2.08c-.12.56-.17.91-.17,1.13,0,.07,0,.12.01.17l-.02.02c-.08-.01-.21-.02-.3-.02-.1,0-.13,0-.22.02-.03,0-.05,0-.04-.02,0,0,0-.26.03-.43h-.02c-.31.31-.62.5-.95.5ZM373.85,131.38c-.11-.26-.24-.41-.56-.41-.21,0-.49.07-.73.37-.18.23-.39.78-.39,1.27s.25.73.59.73c.22,0,.46-.17.77-.48l.31-1.48Z"/><path d="M375.77,133.7c-.63,0-.71-.47-.61-.92l.18-.83c.11-.51.17-.83.19-1.21l.02-.02s.09.02.32.02.33-.02.33-.02v.02c-.13.36-.22.71-.32,1.21l-.14.67c-.13.6,0,.71.33.71.3,0,.64-.29.86-.5l.19-.88c.11-.51.17-.83.19-1.21l.02-.02s.09.02.32.02.33-.02.33-.02v.02c-.13.36-.22.71-.32,1.21l-.08.38c-.11.51-.15,1-.16,1.29l-.02.02c-.08-.01-.21-.02-.3-.02-.1,0-.14,0-.24.02-.04,0-.06,0-.06-.02l.06-.43h-.01c-.46.4-.79.5-1.07.5Z"/><path d="M380.58,133.14c0,.15.08.22.2.22.07,0,.2-.01.32-.05v.02s.01.18.01.18c-.14.07-.37.2-.64.2-.2,0-.42-.09-.42-.36,0-.06,0-.14.05-.32l.09-.35h-.01c-.4.59-.72,1.02-1.2,1.02-.57,0-.69-.48-.69-.86,0-1.06,1.13-2.15,1.77-2.15.27,0,.36,0,.54.02.12.02.4-.02.51-.02l-.48,2.01c-.04.18-.05.32-.05.43ZM380.5,131.04c-.14-.05-.25-.07-.42-.07-.61,0-1.24,1.05-1.24,1.77,0,.38.09.57.32.57.22,0,.78-.55,1.11-1.15.17-.43.24-1.12.24-1.12Z"/><path d="M382.84,133.3v.02s.01.18.01.18c-.14.09-.48.2-.75.2s-.42-.18-.42-.48c0-.11.08-.47.13-.72l.44-2.12c.11-.51.21-1.02.22-1.31l.02-.02c.28-.02.42-.06.6-.13.04,0,.05.02.05.07-.13.41-.21.76-.32,1.27l-.49,2.31c-.04.18-.08.34-.08.51,0,.36.25.28.58.22Z"/></g></g></svg>