<?xml version="1.0" encoding="UTF-8"?><svg xmlns="http://www.w3.org/2000/svg" width="4.41in" height="4.43in" xmlns:xlink="http://www.w3.org/1999/xlink" viewBox="0 0 317.29 319.1"><defs><style>.i,.j,.k,.l{fill:none;}.m{fill:url(#h);}.j{stroke-width:7.64px;}.j,.k,.n,.o,.l{stroke:#000;stroke-miterlimit:10;}.p{clip-path:url(#g);}.k,.o{stroke-width:6px;}.l{stroke-width:4px;}</style><clipPath id="g"><path class="i" d="M8.59,148.02C14.83,71.01,79.3,10.45,157.93,10.45c82.75,0,149.83,67.08,149.83,149.83s-67.08,149.83-149.83,149.83c-39.1,0-74.7-14.98-101.38-39.51"/></clipPath><linearGradient id="h" x1="182.8" y1="157.16" x2="330.75" y2="94.3" gradientUnits="userSpaceOnUse"><stop offset="0" stop-color="#ff0"/><stop offset=".08" stop-color="#ff0" stop-opacity=".98"/><stop offset=".19" stop-color="#ff0" stop-opacity=".92"/><stop offset=".3" stop-color="#ff0" stop-opacity=".82"/><stop offset=".42" stop-color="#ff0" stop-opacity=".69"/><stop offset=".55" stop-color="#ff0" stop-opacity=".51"/><stop offset=".68" stop-color="#ff0" stop-opacity=".3"/><stop offset=".81" stop-color="#ff0" stop-opacity=".05"/><stop offset=".84" stop-color="#ff0" stop-opacity="0"/></linearGradient></defs><g id="b"><path class="j" d="M310.92,172.79c-6.37,78.65-72.21,140.49-152.5,140.49-84.5,0-153-68.5-153-153S73.92,7.28,158.42,7.28c39.93,0,76.28,15.29,103.53,40.34"/><line class="k" x1="158.35" y1="311.48" x2="158.5" y2="156.08"/><line class="k" x1="204.88" y1="303.5" x2="186.04" y2="157.08"/><line class="o" x1="235.39" y1="292.08" x2="210.14" y2="168.5"/><line class="k" x1="199.33" y1="248.04" x2="222.68" y2="229.85"/><line class="k" x1="188.68" y1="185.54" x2="212.02" y2="167.36"/><line class="k" x1="159.42" y1="187.49" x2="189.7" y2="185.54"/><line class="k" x1="159.42" y1="213.33" x2="191.21" y2="184.35"/><line class="k" x1="159.42" y1="214.32" x2="197.74" y2="250.4"/><line class="k" x1="159.42" y1="253.05" x2="197.74" y2="250.4"/><line class="k" x1="158.9" y1="284.99" x2="197.91" y2="250.37"/><line class="k" x1="158.38" y1="284.99" x2="185.01" y2="309.14"/><line class="k" x1="194.45" y1="129.64" x2="194.45" y2="62.53"/><line class="k" x1="210.14" y1="133.34" x2="210.14" y2="64.13"/><line class="k" x1="122.83" y1="129.59" x2="122.83" y2="62.48"/><line class="k" x1="107.14" y1="133.29" x2="107.14" y2="64.09"/><line class="k" x1="158.5" y1="156.08" x2="190.21" y2="184.35"/><line class="k" x1="157.32" y1="157.08" x2="125.61" y2="185.35"/><line class="l" x1="190.21" y1="181.5" x2="222.68" y2="233.78"/><line class="l" x1="126.58" y1="180.76" x2="94.4" y2="232.61"/><line class="l" x1="222.2" y1="229.14" x2="207.19" y2="303.5"/><line class="l" x1="95.08" y1="231.75" x2="108.26" y2="303.75"/></g><g id="c"><path class="n" d="M168.76,29.85c16.72,10.07,33.45,20.15,50.17,30.22.5.3.94.69,1.29,1.15h0c.63.82.97,1.82.97,2.85v.46c0,2.14-1.04,4.15-2.79,5.39l-.98.69c-.34.24-.7.44-1.07.62h0c-2.21,1-4.79.71-6.73-.76l-3.81-2.91c-.65-.5-1.39-.87-2.17-1.09l-6.24-1.8-7.25-2.03c-.29-.06-.58-.12-.88-.18l-4.97-.68-5.92-.63-8.23-.61c-.14,0-.28-.01-.42-.02l-6.88-.07h-9.79l-6.88.07c-.14,0-.28.01-.42.02l-8.23.61-5.92.63-4.97.68c-.29.06-.58.12-.88.18l-7.25,2.03-6.24,1.8c-.78.23-1.52.6-2.17,1.09l-3.81,2.91c-1.93,1.47-4.52,1.76-6.73.76-.38-.17-.74-.38-1.07-.62l-.98-.69c-1.75-1.24-2.79-3.24-2.79-5.39v-.46c0-1.03.34-2.04.97-2.85.36-.46.79-.85,1.29-1.15l53.62-32.2,6.29-4.14c.64-.42,1.48-.42,2.12,0,3.25,2.04,6.49,4.07,9.74,6.11Z"/></g><g id="d"><line class="o" x1="111.4" y1="303.75" x2="130.24" y2="157.33"/><line class="o" x1="80.88" y1="292.33" x2="106.14" y2="168.75"/><line class="o" x1="116.94" y1="248.29" x2="93.6" y2="230.1"/><line class="o" x1="127.6" y1="185.79" x2="104.26" y2="167.61"/><line class="o" x1="156.86" y1="187.74" x2="126.58" y2="185.79"/><line class="o" x1="156.86" y1="212.51" x2="126.07" y2="184.6"/><line class="o" x1="156.86" y1="214.57" x2="118.54" y2="250.65"/><line class="o" x1="156.86" y1="253.3" x2="118.54" y2="250.65"/><line class="o" x1="157.38" y1="284.24" x2="118.37" y2="249.62"/><line class="o" x1="157.9" y1="285.24" x2="131.27" y2="309.39"/></g><g id="e"><path class="n" d="M97.68,168.05l-3.63-1.44c-.74-.29-1.44-.7-2.05-1.21l-2.93-2.42c-1.77-1.46-2.79-3.63-2.79-5.93v-13.63c0-1.97.76-3.87,2.12-5.3l1.1-1.16c.95-1,2.15-1.72,3.48-2.1l10-2.82,8.43-1.99,6.43-1.33c.22-.05.45-.08.67-.11l7.4-.86c.21-.02.42-.04.63-.05l31.52-1.03c.19,0,.39,0,.58,0l31.66,1.37c.27.01.54.04.8.08l7.21,1.08c.15.02.3.05.44.08l7.02,1.47,6.83,1.3c.35.07.69.16,1.03.27l10.75,3.65c1.2.41,2.28,1.1,3.14,2.03h0c1.33,1.42,2.07,3.3,2.07,5.25v13.93c0,1.58-.49,3.12-1.39,4.41l-.46.66c-.77,1.1-1.83,1.99-3.05,2.55l-6.38,2.97c-2.1.97-4.52.95-6.6-.06l-5.03-2.45c-.38-.18-.77-.33-1.17-.45l-13.57-4.05c-.21-.06-.41-.11-.63-.16l-7.17-1.5c-.23-.05-.45-.08-.68-.11l-11.48-1.34c-.14-.02-.29-.03-.43-.04l-8.9-.53c-.15,0-.31-.01-.46-.01h-7.15c-.14,0-.28,0-.42.01l-9.74.54c-.14,0-.28.02-.42.03l-10.22,1.12c-.14.01-.27.03-.41.06l-7.86,1.29c-.31.05-.61.12-.92.21l-14.43,4.23c-.44.13-.86.3-1.27.5l-5.42,2.71c-1.96.98-4.24,1.08-6.27.27Z"/></g><g id="f"><g class="p"><polygon class="m" points="157.96 98.69 320.72 167.59 320.72 29.79 157.96 98.69"/></g></g></svg>